<svg width="1226" height="775" viewBox="0 0 1226 775" fill="none" xmlns="http://www.w3.org/2000/svg">
<path d="M1059.5 736.8C1027.6 732.4 986 758.3 949.7 750.8C911.9 742.9 909.9 695.7 860.6 667.6C793 629.1 759.6 725.3 721.6 725.3C699.7 725.3 687.6 706.7 644.6 704.6C572.3 701 557.5 773.5 557.5 773.5H1134.1C1134.1 773.5 1110.6 743.9 1059.5 736.8Z" stroke="#FF9A92" stroke-width="3" stroke-miterlimit="10"/>
<path d="M151.8 578.2C144.8 572.5 134.7 572 127.1 576.8C118.7 582.1 115.5 591.7 117.7 600.4C109.6 596.7 99.5001 598.2 92.9001 605.6C86.9001 612.3 85.7001 622.4 90.1001 630.2C93.9001 636.9 100.4 640.6 107.1 641.2L155.7 645.3L159.8 596.8C160.3 590 157.7 583 151.7 578.2H151.8Z" fill="#FF5061"/>
<path d="M144.2 631.7C144.2 631.7 117 605.8 89.8 630.5" stroke="#FFDAD7" stroke-width="1.5" stroke-miterlimit="10"/>
<path d="M132.3 623.7C126.9 599.7 149 589.5 160 592.1" stroke="#FFDAD7" stroke-width="1.5" stroke-miterlimit="10"/>
<path d="M113.5 619.6C111.8 614.5 118.4 599.2 134.2 605.1" stroke="#FFDAD7" stroke-width="1.5" stroke-miterlimit="10"/>
<path d="M96 625.6C96 625.6 92.9 605.6 119.2 606.4" stroke="#FFDAD7" stroke-width="1.5" stroke-miterlimit="10"/>
<path d="M148.9 592.8C139.1 575.2 111.4 583.5 120 606" stroke="#FFDAD7" stroke-width="1.5" stroke-miterlimit="10"/>
<path d="M155.3 627C154.5 626.7 153.8 627 153.3 627.3C151.7 628.3 150.8 630.1 150.7 632.3C150.2 631.2 149.8 630 148.9 629.2C147 627.3 144.5 628 143.8 629.9C143.2 631.7 143.8 634.2 144.3 636.5C144.3 636.7 144.4 636.8 144.3 637C144.2 637.4 143.7 637.4 143.3 637.3C140.4 637.1 138.2 639.3 138.3 642.4C138.3 642.8 138.4 643.2 138.7 643.7C139.2 644.5 140.2 644.7 141 644.7C145.7 644.9 156 646.1 156 646.1C156 646.1 157.8 637 158 632.7C158 631.7 158 630.7 157.6 629.6C157.2 628.5 156.3 627.3 155.3 627Z" fill="black"/>
<path d="M201.3 761.3C201.3 761.3 190.8 687.4 149.9 638.9" stroke="black" stroke-width="3" stroke-miterlimit="10"/>
<path d="M185.5 621C179 627.1 170.6 638.8 167.7 645.1C163.7 654 165.8 665 174.6 665.7C188.6 664.9 193.2 638.8 185.5 621Z" fill="black"/>
<path d="M124.6 672.4C132.7 676 146.7 679.2 153.6 679.4C163.4 679.6 172.7 673.4 169.9 665.1C163.7 652.5 137.9 658.4 124.6 672.4Z" fill="black"/>
<path d="M635.4 512.6C639.1 500.2 634.3 486.5 623.7 479C612 470.7 597.4 471.8 587.1 479.6C587.5 466.7 580 454.1 566.5 449.4C554.3 445 540.2 449 532.2 459.2C525.4 467.9 524 478.6 526.9 487.9L548.2 554.8L615.1 533.5C624.4 530.6 632.3 523.3 635.4 512.6Z" fill="#FF5061"/>
<path d="M557.8 537.1C562.4 522.8 577 481.5 531.7 459" stroke="#FFDAD7" stroke-width="1.5" stroke-miterlimit="10"/>
<path d="M563.5 511.9C592.5 491.5 618.9 515.2 621.4 531.2" stroke="#FFDAD7" stroke-width="1.5" stroke-miterlimit="10"/>
<path d="M559.2 484.5C565.1 479.5 589 479.8 589.9 504.1" stroke="#FFDAD7" stroke-width="1.5" stroke-miterlimit="10"/>
<path d="M541.5 464.5C541.5 464.5 566.5 449.4 579.9 484.9" stroke="#FFDAD7" stroke-width="1.5" stroke-miterlimit="10"/>
<path d="M614.4 516.9C632.5 494.1 606.1 461.9 581 485.6" stroke="#FFDAD7" stroke-width="1.5" stroke-miterlimit="10"/>
<path d="M543 531.3C544 530.8 545 530.9 545.8 531.2C548.2 532.1 549.9 534.3 550.6 537.2C550.9 535.7 551.2 534 552.2 532.6C554.2 529.7 557.8 530 559.1 532.3C560.5 534.6 560.3 538 560.2 541.2C560.2 541.5 560.2 541.7 560.3 541.9C560.5 542.4 561.2 542.3 561.8 542.1C565.7 541.1 569.1 543.5 569.7 547.6C569.8 548.2 569.9 548.8 569.6 549.4C569.1 550.7 567.8 551.2 566.7 551.5C560.5 553 547 557.2 547 557.2C547 557.2 542.3 545.4 540.9 539.7C540.6 538.4 540.3 537 540.6 535.4C540.8 533.8 541.7 532.1 543 531.3Z" fill="black"/>
<path d="M507.6 745.2C507.6 745.2 503.4 626.5 553.3 545.9" stroke="black" stroke-width="3" stroke-miterlimit="10"/>
<path d="M587.3 582.5C576.9 579 559.6 576.9 551.2 577.5C539.4 578.4 528.8 587.1 533.2 596.8C542.2 611.4 572.8 601.1 587.3 582.5Z" fill="black"/>
<path d="M496.8 547.3C497.7 558.2 502.5 575 506.3 582.5C511.8 593 523.9 599.4 531.1 591.5C541 577.5 519.6 553.4 496.8 547.3Z" fill="black"/>
<path d="M655 604.8C658.7 595.5 656 584.6 648.5 578C640.1 570.8 628.8 570.5 620.3 575.7C621.6 565.8 616.7 555.6 606.7 550.9C597.6 546.7 586.5 548.7 579.6 555.9C573.7 562.1 571.8 570.2 573.4 577.6L584.7 630.6L637.7 619.3C645.1 617.8 651.7 612.7 655 604.8Z" fill="#FF5061"/>
<path d="M593.4 617.8C598 607.1 612.4 576.4 579.2 555.7" stroke="#FFDAD7" stroke-width="1.5" stroke-miterlimit="10"/>
<path d="M599.7 598.8C623.6 585.3 642 605.5 642.8 618" stroke="#FFDAD7" stroke-width="1.5" stroke-miterlimit="10"/>
<path d="M598.4 577.4C603.3 574 621.7 576 620.6 594.8" stroke="#FFDAD7" stroke-width="1.5" stroke-miterlimit="10"/>
<path d="M586.4 560.6C586.4 560.6 606.7 550.9 614.4 579.2" stroke="#FFDAD7" stroke-width="1.5" stroke-miterlimit="10"/>
<path d="M638.5 606.4C654.1 590.3 636.2 563.5 615.1 579.9" stroke="#FFDAD7" stroke-width="1.5" stroke-miterlimit="10"/>
<path d="M582.5 612.2C583.3 611.8 584 612 584.6 612.3C586.4 613.2 587.5 615 587.8 617.3C588.2 616.1 588.6 614.9 589.4 613.9C591.2 611.8 593.9 612.2 594.8 614.1C595.6 616 595.2 618.6 594.9 621.1C594.9 621.3 594.9 621.5 594.9 621.6C595.1 622.1 595.6 622 596.1 621.9C599.1 621.4 601.6 623.5 601.8 626.7C601.8 627.2 601.8 627.7 601.5 628.1C601.1 629.1 600 629.3 599.1 629.5C594.3 630.2 583.5 632.4 583.5 632.4C583.5 632.4 580.8 622.9 580.2 618.5C580.1 617.4 579.9 616.3 580.3 615.1C580.6 613.9 581.4 612.6 582.5 612.2Z" fill="black"/>
<path d="M539.1 774C539.1 774 544.8 682.4 589.3 624.2" stroke="black" stroke-width="3" stroke-miterlimit="10"/>
<path d="M612.6 654.9C604.9 651.4 591.8 648.5 585.3 648.4C576.1 648.1 567.3 654 569.9 661.8C575.8 673.7 600.1 668.1 612.6 654.9Z" fill="black"/>
<path d="M545.7 621C545.5 629.4 548 642.7 550.4 648.7C553.7 657.3 562.6 663.1 568.8 657.6C577.4 647.6 562.8 627.4 545.7 621Z" fill="black"/>
<path d="M388 604.8C384.2 595.5 386.9 584.6 394.5 578C402.8 570.8 414.2 570.5 422.7 575.7C421.4 565.8 426.3 555.6 436.3 550.9C445.3 546.7 456.4 548.7 463.4 555.9C469.3 562.1 471.2 570.2 469.6 577.6L458.3 630.6L405.2 619.3C397.9 617.8 391.2 612.7 388 604.8Z" fill="#FF5061"/>
<path d="M449.6 617.8C444.9 607.1 430.6 576.4 463.8 555.7" stroke="#FFDAD7" stroke-width="1.5" stroke-miterlimit="10"/>
<path d="M443.3 598.8C419.4 585.3 400.9 605.5 400.2 618" stroke="#FFDAD7" stroke-width="1.5" stroke-miterlimit="10"/>
<path d="M444.5 577.4C439.6 574 421.2 576 422.4 594.8" stroke="#FFDAD7" stroke-width="1.5" stroke-miterlimit="10"/>
<path d="M456.6 560.6C456.6 560.6 436.3 550.9 428.6 579.2" stroke="#FFDAD7" stroke-width="1.5" stroke-miterlimit="10"/>
<path d="M404.5 606.4C388.9 590.3 406.7 563.5 427.9 579.9" stroke="#FFDAD7" stroke-width="1.5" stroke-miterlimit="10"/>
<path d="M460.5 612.2C459.7 611.8 459 612 458.4 612.3C456.6 613.2 455.4 615 455.1 617.3C454.8 616.1 454.4 614.9 453.6 613.9C451.8 611.8 449 612.2 448.2 614.1C447.3 616 447.7 618.6 448 621.1C448 621.3 448.1 621.5 448 621.6C447.9 622.1 447.3 622 446.9 621.9C443.8 621.4 441.4 623.5 441.2 626.7C441.2 627.2 441.2 627.7 441.4 628.1C441.9 629.1 443 629.3 443.8 629.5C448.7 630.2 459.4 632.4 459.4 632.4C459.4 632.4 462.1 622.9 462.8 618.5C462.9 617.4 463 616.3 462.7 615.1C462.4 613.9 461.5 612.6 460.5 612.2Z" fill="black"/>
<path d="M503.9 774C503.9 774 498.2 682.4 453.7 624.2" stroke="black" stroke-width="3" stroke-miterlimit="10"/>
<path d="M430.3 654.9C438 651.4 451.2 648.5 457.7 648.4C466.9 648.1 475.7 654 473 661.8C467.2 673.7 442.9 668.1 430.3 654.9Z" fill="black"/>
<path d="M497.3 621C497.4 629.4 495 642.7 492.6 648.7C489.2 657.3 480.4 663.1 474.2 657.6C465.6 647.6 480.2 627.4 497.3 621Z" fill="black"/>
<path d="M407.6 773.5H50.8C50.8 773.5 74.5 722.5 136.5 714.7C168.7 710.7 185.6 738.7 210.6 728.7C235.7 718.7 255.7 619.1 327.9 625.1C400 631.1 464.1 741.7 509.4 728.7C554.7 715.8 573.2 702.9 609.9 714.7C645.7 726.3 669.2 745 693.9 773.5C647.1 773.5 407.6 773.5 407.6 773.5Z" fill="#FFC9C2"/>
<path d="M492.1 744.4C452.1 742.7 430.8 761.3 404.5 761.3C378.2 761.3 377.6 728.7 339.6 725.4C301.5 722.1 253.7 773.5 253.7 773.5H542C542 773.5 521.4 745.6 492.1 744.4Z" stroke="#FF9A92" stroke-width="3" stroke-miterlimit="10"/>
<path d="M688 660.4L981.7 728.2C992.2 730.6 1002.6 724.1 1005 713.7L1133.6 156.6C1136 146.2 1129.5 135.7 1119.1 133.3L825.3 65.5001C814.9 63.1001 804.4 69.6001 802 80.0001L673.4 637.1C671 647.6 677.5 658 688 660.4Z" fill="#FFDAD7" stroke="white" stroke-width="3" stroke-linejoin="round"/>
<path d="M1003.9 662.9C1003.77 662.9 1003.63 662.867 1003.5 662.8L697 592.1C696.6 592 696.3 591.7 696.1 591.4C695.9 591.1 695.8 590.7 695.9 590.3L806.3 112.1C806.5 111.4 807.1 110.9 807.8 110.9C807.867 110.9 807.967 110.933 808.1 111L1114.6 181.7C1115 181.8 1115.3 182 1115.5 182.4C1115.7 182.7 1115.8 183.1 1115.7 183.5L1005.3 661.7C1005.2 662.4 1004.5 662.9 1003.9 662.9Z" fill="#FFC9C2"/>
<path fill-rule="evenodd" clip-rule="evenodd" d="M808.4 109.5L1114.9 180.3C1116.6 180.6 1117.6 182.2 1117.2 183.9L1006.8 662.1C1006.6 662.8 1006.1 663.5 1005.5 663.9C1005 664.2 1004.4 664.4 1003.9 664.4C1003.63 664.4 1003.4 664.367 1003.2 664.3L696.7 593.5C695.1 593.2 694.1 591.6 694.4 589.9L804.8 111.7C805.2 110.4 806.4 109.4 807.8 109.4C808 109.4 808.2 109.433 808.4 109.5ZM697.4 590.6L1003.9 661.4L1114.3 183.2L807.8 112.4L697.4 590.6Z" fill="white"/>
<path d="M832 653.9C830.5 660.3 834.5 666.7 840.9 668.2C847.3 669.7 853.7 665.7 855.1 659.3C856.6 652.9 852.6 646.5 846.2 645C839.8 643.5 833.4 647.5 832 653.9Z" stroke="white" stroke-width="2" stroke-linecap="round" stroke-linejoin="round"/>
<path d="M993.9 132.3L938.3 119.4" stroke="white" stroke-width="6" stroke-linecap="round" stroke-linejoin="round"/>
<path d="M1014.5 137L1004.3 134.6" stroke="white" stroke-width="6" stroke-linecap="round" stroke-linejoin="round"/>
<g style="mix-blend-mode:multiply" opacity="0.45">
<path d="M863.7 251.4L1072 299.5L1057.9 280.3L1064.8 250.6C1070.5 225.9 1055.1 201.2 1030.3 195.5L884.4 161.8C859.6 156 834.9 171.5 829.2 196.2C823.5 221 838.9 245.7 863.7 251.4Z" fill="#FFC9C2"/>
</g>
<path d="M1032.1 219.1L867.6 181.1" stroke="#FFC9C2" stroke-width="3" stroke-linecap="round" stroke-linejoin="round"/>
<path d="M891.8 202.7L864.1 196.3" stroke="#FFC9C2" stroke-width="3" stroke-linecap="round" stroke-linejoin="round"/>
<path d="M1028.6 234.3L914.3 207.9" stroke="#FFC9C2" stroke-width="3" stroke-linecap="round" stroke-linejoin="round"/>
<path d="M1025.1 249.4L860.6 211.5" stroke="#FFC9C2" stroke-width="3" stroke-linecap="round" stroke-linejoin="round"/>
<path d="M1021.6 264.6L941.8 246.2" stroke="#FFC9C2" stroke-width="3" stroke-linecap="round" stroke-linejoin="round"/>
<g style="mix-blend-mode:multiply" opacity="0.45">
<path d="M782.9 572.4L991.2 620.5L977.1 601.3L984 571.6C989.7 546.9 974.2 522.2 949.5 516.5L803.6 482.8C778.8 477 754.1 492.5 748.4 517.2C742.7 542 758.1 566.7 782.9 572.4Z" fill="#FFC9C2"/>
</g>
<path d="M951.3 540.1L786.8 502.1" stroke="#FFC9C2" stroke-width="3" stroke-linecap="round" stroke-linejoin="round"/>
<path d="M811 523.7L783.3 517.3" stroke="#FFC9C2" stroke-width="3" stroke-linecap="round" stroke-linejoin="round"/>
<path d="M947.8 555.3L833.4 528.9" stroke="#FFC9C2" stroke-width="3" stroke-linecap="round" stroke-linejoin="round"/>
<path d="M944.3 570.5L779.8 532.5" stroke="#FFC9C2" stroke-width="3" stroke-linecap="round" stroke-linejoin="round"/>
<path d="M940.8 585.6L860.9 567.2" stroke="#FFC9C2" stroke-width="3" stroke-linecap="round" stroke-linejoin="round"/>
<g style="mix-blend-mode:multiply" opacity="0.45">
<path d="M967.8 460.2L759.4 412.1L780.5 401.1L787.4 371.4C793.1 346.6 817.8 331.2 842.5 336.9L988.5 370.6C1013.2 376.3 1028.7 401 1023 425.8C1017.2 450.5 992.5 465.9 967.8 460.2Z" fill="#FFC9C2"/>
</g>
<path d="M830.5 357.4L995.1 395.4" stroke="#FFC9C2" stroke-width="3" stroke-linecap="round" stroke-linejoin="round"/>
<path d="M963.9 404.1L991.6 410.5" stroke="#FFC9C2" stroke-width="3" stroke-linecap="round" stroke-linejoin="round"/>
<path d="M827 372.5L941.4 398.9" stroke="#FFC9C2" stroke-width="3" stroke-linecap="round" stroke-linejoin="round"/>
<path d="M823.5 387.7L988.1 425.7" stroke="#FFC9C2" stroke-width="3" stroke-linecap="round" stroke-linejoin="round"/>
<path d="M820 402.8L899.9 421.3" stroke="#FFC9C2" stroke-width="3" stroke-linecap="round" stroke-linejoin="round"/>
<path d="M755.5 698.9L757.3 745.4C757.3 745.4 719.1 767.9 719.1 768.4C719.1 768.9 755.5 770.2 755.5 770.2L771.6 762.3H787.3C789.1 762.3 790.5 760.6 790.1 758.8L786.8 744.4L792.5 695.4" fill="#F7A89A"/>
<path d="M721.7 763C727.5 759.7 749 749 749 749L771.5 762.3H790.9V773.5H773.8V765H771.3C770.5 765 769.6 765.3 768.9 765.9L760.5 772.4C759.5 773.1 758.4 773.5 757.2 773.5C757.2 773.5 724.1 773.5 719.1 773.5C714.1 773.5 713 768.1 721.7 763Z" fill="#FF5061"/>
<path d="M779.6 764.4L788.8 751.9L787.7 747.2L776.8 762.3L779.6 764.4Z" fill="#FF5061"/>
<path d="M879.6 257.3C894.9 275.7 910.9 313.2 910.2 330C909.2 356.4 884.5 419.1 884.5 419.1L877.1 409.5L894 329.9C894 329.9 849.1 288.4 838.5 280C827.8 271.7 816.1 247 840 236.2C857.6 228.3 872.4 248.8 879.6 257.3Z" fill="#F28B7C"/>
<path d="M830 391.3C830 391.3 828 525 837 558.3C842.4 578.5 868 630 868 630L968.7 653.3C968.7 653.3 933.1 600.9 902.5 549.6C902.5 520 905.4 500 908.5 443C916.6 402.9 908.4 393.6 904.3 379.6" fill="#2433BC"/>
<path d="M899.9 637.5C899.9 637.5 861.4 563.2 855 541.5C851.9 530.7 848.7 396.9 848.7 396.9" stroke="#152377" stroke-width="1.5" stroke-miterlimit="10"/>
<path d="M905.4 378.8C915.4 394 931.7 426 895.9 461.8C868.1 491.1 826.7 554.5 826.7 554.5L839.9 720.9L742.9 710C742.9 710 747.8 579.1 757.9 535C767.1 495.2 839.6 401.3 839.6 401.3L840.9 387.8" fill="#3E49E1"/>
<path d="M868 399.4C867.5 404.1 866.2 409.7 862.9 415.2C855.5 427.9 791.4 528.7 790.4 540.1C786.5 581.6 785 714.7 785 714.7" stroke="#152377" stroke-width="1.5" stroke-miterlimit="10"/>
<path d="M829.9 400.6C829.9 400.6 861.8 407.2 910.2 386.9" stroke="#152377" stroke-width="1.5" stroke-miterlimit="10"/>
<path d="M881 396.6C881 396.6 878.9 387.9 878.1 384.5" stroke="#152377" stroke-width="1.5" stroke-miterlimit="10"/>
<path d="M903.9 389.1C903.9 389.1 899.4 379.5 898.3 378.5" stroke="#152377" stroke-width="1.5" stroke-miterlimit="10"/>
<path d="M857.6 423.2C857.6 423.2 854.1 413.3 853 409.3C852 405.3 852.2 401.3 852.2 401.3" stroke="#152377" stroke-width="1.5" stroke-miterlimit="10"/>
<path d="M766.5 560.7C766.5 560.7 776.8 616.4 781.5 635.2" stroke="#152377" stroke-width="1.5" stroke-miterlimit="10"/>
<path d="M759.6 563.2C759.6 563.2 760.8 593.5 761.9 603.8" stroke="#152377" stroke-width="1.5" stroke-miterlimit="10"/>
<path d="M917.9 414.3L903.9 413L897.7 436.8C897.4 437.8 897.5 438.9 897.9 439.8L903.9 452.8" stroke="#152377" stroke-width="1.5" stroke-miterlimit="10"/>
<path d="M917.9 417.2L915.4 416.9" stroke="#152377" stroke-width="1.5" stroke-miterlimit="10"/>
<path d="M913.7 416.8L909.9 416.4" stroke="#152377" stroke-width="1.5" stroke-miterlimit="10" stroke-dasharray="2.91 2.91"/>
<path d="M909 416.3L906.6 416L906 418.5" stroke="#152377" stroke-width="1.5" stroke-miterlimit="10"/>
<path d="M905.2 421.7L901.5 437.3C901.2 438.2 901.3 439.2 901.7 440L904.4 446" stroke="#152377" stroke-width="1.5" stroke-miterlimit="10" stroke-dasharray="5.63 5.63"/>
<path d="M905.1 447.5L906.1 449.8" stroke="#152377" stroke-width="1.5" stroke-miterlimit="10"/>
<path d="M829.3 371.6C829.3 371.6 830 378.2 830 391.3C848.7 394.3 892.6 385 905.4 378.8C905.4 378.8 901 370.4 898 360.8C895.9 347.3 846.9 346.5 846.9 346.5L829.3 371.6Z" fill="#F7A89A"/>
<path d="M839.9 382.5C840.5 384.1 840.4 386.1 839.6 387.6" stroke="#DB6653" stroke-width="1.5" stroke-miterlimit="10"/>
<path d="M840.8 241.1C833.5 246.1 818.5 273.1 818.5 273.1C818.5 273.1 804 290.8 806.3 303.2C809.5 319.9 820 327.2 821 330.3C824.7 341.1 829.6 375 829.6 375C829.6 375 868.9 377 899.9 364.3C890.4 325.8 908.4 300 891.6 266.6C883.4 250.4 861.4 235.5 861.4 235.5" fill="white"/>
<path d="M720.2 310.9C719.8 310.6 708.4 304.6 706.4 302.7C704.4 300.8 696.4 290.5 698 289.3C699.7 288.2 706.3 295.9 706.3 295.9L717 303" fill="#F28B7C"/>
<path d="M710.6 296.9L713.1 294.4C713.1 294.4 704.3 283.4 705.5 281.8C706.7 280.1 715.5 291.2 715.5 291.2C715.5 291.2 722.6 293.6 726.2 295.8C729.8 298 734.4 304.8 734.4 304.8L728.2 315" fill="#F28B7C"/>
<path d="M862.4 256.2C837.1 277.8 802.2 326.7 802.2 326.7L731.8 302.2L726.9 317.2C726.9 317.2 787.9 363.3 812.7 357.1C828.1 353.2 853.8 328.1 870.1 306.1C875 306.6 882 303 884.5 298.3C891.9 284.9 887.4 234.9 862.4 256.2Z" fill="#F7A89A"/>
<path d="M727.2 311.3L722.8 301.2C722.6 300.8 722.2 300.2 721.8 299.8L699.3 278.7C699.3 278.7 698 279.8 697.9 280C697.833 280.067 697.833 280.2 697.9 280.4L701.1 291.5C701.2 292 701.6 292.5 702 292.9L725.1 312.4C725.4 312.7 725.7 312.8 725.8 312.7L727.2 311.3Z" fill="#0A172B"/>
<path d="M727.2 310.9L724.1 299.9C724 299.4 723.6 298.9 723.1 298.5L700 278.9C699.5 278.5 699.1 278.5 699.3 279L702.4 290.2C702.5 290.6 702.9 291.2 703.4 291.6L726.4 311C727 311.5 727.4 311.4 727.2 310.9Z" fill="#00276F"/>
<path d="M721.5 297.1L725.1 310L705 292.9L701.3 280L721.5 297.1Z" fill="#8DADE0"/>
<path d="M724.3 304.3C724.6 304.6 724.9 304.6 724.8 304.4C724.8 304.2 724.5 303.7 724.2 303.5C723.9 303.2 723.7 303.1 723.7 303.3C723.8 303.6 724 304 724.3 304.3Z" fill="#8DADE0"/>
<path d="M701.5 284.1L702.2 286.3" stroke="#8DADE0" stroke-width="0.5" stroke-miterlimit="10" stroke-linecap="round"/>
<g style="mix-blend-mode:multiply" opacity="0.55">
<path d="M706.8 286C707.1 286.2 707.3 286.3 707.3 286.1C707.3 285.8 707 285.4 706.7 285.2C706.5 284.9 706.2 284.8 706.3 285.1C706.3 285.3 706.5 285.7 706.8 286Z" fill="#8DADE0"/>
</g>
<path opacity="0.51" d="M706.6 292.6L704.6 285.8C704.4 285.1 704.9 285 705.7 285.6L707.4 287L707.6 286.9L710 295.2C710.2 295.9 709.7 296 708.9 295.4L707.9 294.5C707.3 294 706.7 293.2 706.6 292.6Z" fill="white"/>
<path d="M705.8 286.7L707.8 293.5" stroke="#8DADE0" stroke-width="0.5" stroke-miterlimit="10" stroke-linecap="round"/>
<path d="M707.1 287.7L708.2 291.7" stroke="#8DADE0" stroke-width="0.5" stroke-miterlimit="10" stroke-linecap="round"/>
<g style="mix-blend-mode:multiply" opacity="0.55">
<path d="M719.3 296.3C719.6 296.6 719.8 296.6 719.8 296.4C719.8 296.2 719.5 295.8 719.2 295.5C719 295.2 718.7 295.2 718.8 295.4C718.8 295.6 719 296 719.3 296.3Z" fill="#8DADE0"/>
</g>
<path opacity="0.51" d="M719 302.9L717.1 296.2C716.9 295.4 717.4 295.3 718.2 295.9L719.9 297.4L720.1 297.3L722.5 305.5C722.7 306.2 722.2 306.3 721.4 305.7L720.4 304.9C719.8 304.3 719.2 303.5 719 302.9Z" fill="white"/>
<path d="M718.3 297L720.3 303.8" stroke="#8DADE0" stroke-width="0.5" stroke-miterlimit="10" stroke-linecap="round"/>
<path d="M719.6 298.1L720.7 302" stroke="#8DADE0" stroke-width="0.5" stroke-miterlimit="10" stroke-linecap="round"/>
<g style="mix-blend-mode:multiply" opacity="0.55">
<path d="M715.7 301.6C716 301.9 716.2 301.9 716.2 301.7C716.2 301.5 715.9 301.1 715.6 300.8C715.4 300.6 715.2 300.5 715.2 300.7C715.2 300.9 715.4 301.3 715.7 301.6Z" fill="#8DADE0"/>
</g>
<path opacity="0.51" d="M712.5 297L710.4 289.6C710.2 289 710.7 288.9 711.3 289.5L712.9 290.8C713.3 291.2 713.7 291.8 713.8 292.2L716.4 301.2L715.7 300.2L713.4 298.3C713 298 712.6 297.4 712.5 297Z" fill="white"/>
<path d="M711.7 290.7L713.6 297.6" stroke="#8DADE0" stroke-width="0.5" stroke-miterlimit="10" stroke-linecap="round"/>
<path d="M713 291.8L714.1 295.7" stroke="#8DADE0" stroke-width="0.5" stroke-miterlimit="10" stroke-linecap="round"/>
<path d="M714.3 296.4L714.7 297.9" stroke="#8DADE0" stroke-width="0.5" stroke-miterlimit="10" stroke-linecap="round"/>
<mask id="mask0_115_2839" style="mask-type:luminance" maskUnits="userSpaceOnUse" x="699" y="278" width="29" height="34">
<path d="M727.22 310.88L724.09 299.87C723.97 299.43 723.58 298.87 723.13 298.49L699.97 278.9C699.47 278.48 699.11 278.55 699.25 279.05L702.41 290.17C702.54 290.61 702.93 291.17 703.38 291.55L726.42 311.04C726.98 311.51 727.38 311.44 727.22 310.88Z" fill="white"/>
</mask>
<g mask="url(#mask0_115_2839)">
<path d="M699.6 286.7L700.5 289.5L728.6 305.5L727.7 302.7L699.6 286.7Z" fill="url(#paint0_linear_115_2839)"/>
<path d="M697.8 284.5L698 285.1L726.1 301.1L725.8 300.4L697.8 284.5Z" fill="url(#paint1_linear_115_2839)"/>
</g>
<path d="M731.2 320C726.7 317.2 713.7 308.6 713.1 308.1C711.7 306.9 706.9 298.3 706.7 294.6C706.7 294.1 706.8 293.4 707.3 293.2C707.8 293 708.2 293.4 708.6 293.8C710 295.5 714.2 301.7 714.4 301.8C718 302.1 721.6 296.5 732.9 302.8" fill="#F7A89A"/>
<path d="M870.1 306.1L881 295.1" stroke="#DB6653" stroke-width="1.5" stroke-miterlimit="10"/>
<path d="M824.1 181.8C820.5 192 818.9 220.4 826.3 224.8C833.7 229.2 844.5 222.6 847.8 219.4C852.7 214.8 863.4 194 857 186.2C850.6 178.4 829.1 167.6 824.1 181.8Z" fill="#F7A89A"/>
<path d="M837.6 219.7L840.8 241.1C840.8 241.1 834.1 250.3 838.5 253.1C845 257.4 862.9 240.5 862.9 240.5L853.5 209.2" fill="#F7A89A"/>
<path d="M862.3 188.2C861.2 178 849.6 170.3 838.7 170.6C831.2 168.6 812.2 174.2 817.6 193.2C817.6 193.2 836.5 195.5 842.6 187.7C842.7 205.7 857.9 209.5 857.9 209.5C857.9 209.5 863.6 200.4 862.3 188.2Z" fill="black"/>
<path d="M836.2 170.9C841.5 165.3 849.7 165.8 856.3 168.5C863.4 171.5 863.3 176.4 867.8 182.5C871.6 187.6 880.8 194.3 886.2 197.7C888.7 199.2 891.3 200.4 893.6 202.1C899.1 206.2 902.5 212.8 902.5 219.6C902.6 223 901.9 226.4 902.8 229.6C904.4 235 910.1 237.9 913.7 242.2C917 246 918.6 251.2 917.8 256.2C916.9 262 912.9 266.9 908.4 270.7C900.6 277.1 890.5 281 880.5 280.5C870.4 280 860.4 274.9 854.9 266.4C852.6 263 851.1 258.7 852.6 254.8C853.5 252.6 855.3 250.8 855.7 248.5C856.5 244 851.9 240.5 849.7 236.5C847.7 232.7 847.8 228.2 849 224.1C850.2 220.3 853.8 216.5 853.9 212.6C854 209.1 851.6 204.8 849.2 202.5" fill="black"/>
<path d="M848.8 205.9C848.9 205.5 849.3 205.3 849.7 205.1C851.3 204.3 853.3 203.4 854.9 204.4C855.7 204.8 856.3 205.7 856.5 206.6C857.3 209.7 856.5 213.6 854 215.8C851.7 217.7 846.3 218.5 845.9 214.4" fill="#F7A89A"/>
<path d="M829.4 200.5C829.4 200.5 823.2 208.8 824.6 210.6C826.1 212.4 829.5 211.8 829.5 211.8" stroke="#DB6653" stroke-width="1.5" stroke-miterlimit="10"/>
<path d="M835.8 200.9C835.7 201.6 835.8 202.4 835.9 202.9C835.9 203.9 836.9 204.2 837.7 203.8C839.1 203.1 838.4 199.5 836.6 200C836.1 200.1 835.9 200.5 835.8 200.9Z" fill="black"/>
<path d="M822.6 199.3C822.5 200 822.6 200.8 822.7 201.4C822.7 202.3 823.7 202.6 824.5 202.2C825.9 201.5 825.2 197.9 823.4 198.4C822.9 198.5 822.7 198.9 822.6 199.3Z" fill="black"/>
<path d="M832.7 196.9C832.7 196.9 836.4 193.3 841.4 197.9" stroke="black" stroke-width="1.5" stroke-miterlimit="10" stroke-linecap="round"/>
<path d="M822.5 195.9C823.8 194.8 825.9 194.2 827.8 196.3" stroke="black" stroke-width="1.5" stroke-miterlimit="10" stroke-linecap="round"/>
<path d="M826.3 215.9L836.6 214.7C836.6 214.7 834.1 220.5 829.2 219.9C826.8 219.6 826.3 215.9 826.3 215.9Z" fill="white"/>
<path d="M838.5 225.9C838.5 225.9 845.4 224.5 848.7 219.2" stroke="#DB6653" stroke-width="1.5" stroke-miterlimit="10"/>
<path d="M836.9 170.2C836.9 170.2 843.3 180.3 867.8 182.5C867.1 178 866.1 171.1 856 167.5C843.2 162.9 836.9 170.2 836.9 170.2Z" fill="#FF5061"/>
<path d="M855.3 169C855.167 169 855.033 168.967 854.9 168.9C854.4 168.7 854.3 168.1 854.5 167.6L855.9 164.9C856.1 164.5 856.7 164.3 857.2 164.5C857.7 164.8 857.9 165.4 857.6 165.9L856.3 168.5C856.1 168.9 855.7 169.1 855.3 169Z" fill="#FF5061"/>
<path d="M538 660.4L244.3 728.2C233.8 730.6 223.4 724.1 221 713.7L92.4 156.6C90 146.2 96.5 135.7 106.9 133.3L400.7 65.5001C411.1 63.1001 421.6 69.6001 424 80.0001L552.6 637.1C555 647.6 548.5 658 538 660.4Z" fill="#FFDAD7" stroke="white" stroke-width="3" stroke-linejoin="round"/>
<path d="M222.1 662.9C221.5 662.9 220.8 662.4 220.7 661.7L110.3 183.5C110.1 182.7 110.6 181.9 111.4 181.7L417.9 111C418.033 110.933 418.133 110.9 418.2 110.9C418.9 110.9 419.5 111.4 419.7 112.1L530.1 590.3C530.2 590.7 530.1 591.1 529.9 591.4C529.7 591.7 529.4 592 529 592.1L222.5 662.8C222.367 662.867 222.233 662.9 222.1 662.9Z" fill="#FFC9C2"/>
<path fill-rule="evenodd" clip-rule="evenodd" d="M421.2 111.7L531.6 589.9C531.9 591.6 530.9 593.2 529.3 593.5L222.8 664.3C222.6 664.367 222.367 664.4 222.1 664.4C221.6 664.4 221 664.2 220.5 663.9C219.9 663.5 219.4 662.8 219.2 662.1L108.8 183.9C108.4 182.2 109.4 180.6 111.1 180.3L417.6 109.5C417.8 109.433 418 109.4 418.2 109.4C419.6 109.4 420.8 110.4 421.2 111.7ZM111.7 183.2L222.1 661.4L528.6 590.6L418.2 112.4L111.7 183.2Z" fill="white"/>
<path d="M394 653.9C395.5 660.3 391.5 666.7 385.1 668.2C378.7 669.7 372.3 665.7 370.9 659.3C369.4 652.9 373.4 646.5 379.8 645C386.2 643.5 392.6 647.5 394 653.9Z" stroke="white" stroke-width="2" stroke-linecap="round" stroke-linejoin="round"/>
<path d="M232.1 132.3L287.7 119.4" stroke="white" stroke-width="6" stroke-linecap="round" stroke-linejoin="round"/>
<path d="M211.5 137L221.7 134.6" stroke="white" stroke-width="6" stroke-linecap="round" stroke-linejoin="round"/>
<g style="mix-blend-mode:multiply" opacity="0.45">
<path d="M364 250.2L155.6 298.3L169.7 279.2L162.9 249.4C157.2 224.7 172.6 200 197.3 194.3L343.3 160.6C368 154.9 392.7 170.3 398.5 195.1C404.2 219.8 388.7 244.5 364 250.2Z" fill="#FFC9C2"/>
</g>
<path d="M195.5 218L360.1 180" stroke="#FFC9C2" stroke-width="3" stroke-linecap="round" stroke-linejoin="round"/>
<path d="M335.9 201.5L363.6 195.1" stroke="#FFC9C2" stroke-width="3" stroke-linecap="round" stroke-linejoin="round"/>
<path d="M199 233.1L313.4 206.7" stroke="#FFC9C2" stroke-width="3" stroke-linecap="round" stroke-linejoin="round"/>
<path d="M202.5 248.3L367.1 210.3" stroke="#FFC9C2" stroke-width="3" stroke-linecap="round" stroke-linejoin="round"/>
<path d="M206 263.4L285.9 245" stroke="#FFC9C2" stroke-width="3" stroke-linecap="round" stroke-linejoin="round"/>
<g style="mix-blend-mode:multiply" opacity="0.45">
<path d="M444.8 571.2L236.4 619.3L250.6 600.2L243.7 570.5C238 545.7 253.4 521 278.2 515.3L424.1 481.6C448.9 475.9 473.6 491.3 479.3 516.1C485 540.8 469.6 565.5 444.8 571.2Z" fill="#FFC9C2"/>
</g>
<path d="M276.3 539L440.9 501" stroke="#FFC9C2" stroke-width="3" stroke-linecap="round" stroke-linejoin="round"/>
<path d="M416.7 522.5L444.4 516.1" stroke="#FFC9C2" stroke-width="3" stroke-linecap="round" stroke-linejoin="round"/>
<path d="M279.8 554.1L394.2 527.7" stroke="#FFC9C2" stroke-width="3" stroke-linecap="round" stroke-linejoin="round"/>
<path d="M283.3 569.3L447.9 531.3" stroke="#FFC9C2" stroke-width="3" stroke-linecap="round" stroke-linejoin="round"/>
<path d="M286.8 584.4L366.7 566" stroke="#FFC9C2" stroke-width="3" stroke-linecap="round" stroke-linejoin="round"/>
<g style="mix-blend-mode:multiply" opacity="0.45">
<path d="M259.9 459.1L468.2 410.9L447.1 399.9L440.3 370.2C434.6 345.4 409.9 330 385.1 335.7L239.2 369.4C214.4 375.1 199 399.8 204.7 424.6C210.4 449.3 235.1 464.8 259.9 459.1Z" fill="#FFC9C2"/>
</g>
<path d="M397.1 356.2L232.6 394.2" stroke="#FFC9C2" stroke-width="3" stroke-linecap="round" stroke-linejoin="round"/>
<path d="M263.8 403L236.1 409.4" stroke="#FFC9C2" stroke-width="3" stroke-linecap="round" stroke-linejoin="round"/>
<path d="M400.6 371.4L286.3 397.8" stroke="#FFC9C2" stroke-width="3" stroke-linecap="round" stroke-linejoin="round"/>
<path d="M404.1 386.5L239.6 424.5" stroke="#FFC9C2" stroke-width="3" stroke-linecap="round" stroke-linejoin="round"/>
<path d="M407.6 401.7L327.7 420.1" stroke="#FFC9C2" stroke-width="3" stroke-linecap="round" stroke-linejoin="round"/>
<path d="M374.7 387.8C369.6 454.8 345.9 543.7 325.9 569C308.5 591 216.6 637.4 216.6 637.4L201.5 572L259.9 531L276.9 436.4C276.9 436.4 266.9 399 277.9 373.3" fill="#071242"/>
<path d="M205.2 587.9L277.6 538.3L296 412.3" stroke="black" stroke-width="1.5" stroke-miterlimit="10"/>
<path d="M438.9 771.9V767.2H499.8C502.8 767.2 505.5 765.6 507.1 763.1L507.6 763V770.5C507.6 770.834 507.5 771.1 507.3 771.3L507.1 771.5C505.9 772.8 504.2 773.5 502.4 773.5H440.6C439.6 773.5 438.9 772.8 438.9 771.9Z" fill="white"/>
<path d="M416 686.3L441.3 745L443.1 765.5H501.7C503.7 765.5 505.3 764 505.3 762C505.3 760.6 504.4 759.3 503 758.7L469.2 745.2L453.3 680" fill="#DB6653"/>
<path d="M443.5 753.7C444.1 753.2 441.1 745.2 441.1 745.2L435.3 731.6L464.6 724.7L469.6 744.3L443.5 753.7Z" fill="white"/>
<path d="M469 741.7L505.1 758.6C506.6 759.3 507.6 760.9 507.6 762.8C507.6 765.2 505.1 767.2 502.9 767.2H438.9L440.8 744.4C440.8 744.4 452.5 750.9 469 741.7Z" fill="#3E49E1"/>
<path d="M476.4 744.3C474.4 747 472.6 749.9 471.2 752.9" stroke="white" stroke-width="2" stroke-miterlimit="10" stroke-linecap="round"/>
<path d="M481 747.1C478.9 750 478 751.7 476.7 754.4" stroke="white" stroke-width="2" stroke-miterlimit="10" stroke-linecap="round"/>
<path d="M484.9 749.1C483.4 751.1 482.1 753.7 481 755.9" stroke="white" stroke-width="2" stroke-miterlimit="10" stroke-linecap="round"/>
<path d="M351.1 416.7C351.1 416.7 414.3 522 423.3 547C432.3 572 464.1 700 464.1 700L392.5 710C392.5 710 359.5 577.1 353.5 568.2C343.2 552.8 291.9 492 291.9 492C291.9 492 245.7 456.7 249.6 399" fill="#0F1470"/>
<path d="M407.9 706.7L372.1 566.6L301.6 480.6C301.6 480.6 269.8 456.7 262.2 421.2" stroke="black" stroke-width="1.5" stroke-miterlimit="10"/>
<path d="M267.2 436.7H284.9C291.6 436.7 297.8 432.7 300.5 426.5L306.4 413" stroke="black" stroke-width="1.5" stroke-miterlimit="10"/>
<path d="M476.8 312.4L470.4 292.1C470.4 292.1 498.9 267.2 500.1 268.2C502.7 270.3 490.7 281 490.7 281C490.7 281 505.3 270.5 505.8 271.9C506.8 274.6 494.1 286.4 494.1 286.4C494.1 286.4 507.7 275.6 508.2 277.7C508.6 279.9 491.6 298.7 491.6 298.7L476.8 312.4Z" fill="#DB6653"/>
<path d="M467.1 292.2L472.1 288.7C472.1 288.7 477.1 280.9 482.2 276C487.4 271.1 489.3 269.7 490.4 270.2C491.5 270.8 486.8 278.9 486.8 278.9C486.8 278.9 484.6 287.9 479.1 291.7" fill="#DB6653"/>
<path d="M483.2 300.1L477.3 288.5C477 288 477.2 287.4 477.7 286.9L503.5 259.9C503.5 259.9 504 260.1 504.3 260.3C504.5 260.4 504.7 260.5 504.9 260.7L511.6 272.7C511.9 273.1 511.7 273.8 511.2 274.3L485.9 300.3C485.5 300.7 485 300.8 484.6 300.8L483.2 300.1Z" fill="#0A172B"/>
<path d="M482.9 299.8L476.3 288C476 287.5 476.1 286.8 476.6 286.3L502.1 260.2C502.7 259.6 503.5 259.6 503.8 260.1L510.6 272.1C510.8 272.6 510.7 273.3 510.2 273.8L484.9 299.7C484.2 300.4 483.3 300.4 482.9 299.8Z" fill="#00276F"/>
<path d="M478.5 284.5L486.3 298.3L508.4 275.6L500.6 261.7L478.5 284.5Z" fill="#8DADE0"/>
<path d="M481.1 292.4C480.8 292.8 480.4 292.9 480.2 292.7C479.9 292.4 480 291.9 480.3 291.6C480.6 291.2 481 291.1 481.2 291.3C481.4 291.6 481.4 292 481.1 292.4Z" fill="#8DADE0"/>
<path d="M505.1 265.8L506.5 268.2" stroke="#8DADE0" stroke-width="0.5" stroke-miterlimit="10" stroke-linecap="round"/>
<g style="mix-blend-mode:multiply" opacity="0.55">
<path d="M496.1 269.2C495.8 269.5 495.4 269.6 495.2 269.4C495 269.2 495.1 268.7 495.3 268.4C495.6 268 496 267.9 496.2 268.1C496.4 268.4 496.4 268.8 496.1 269.2Z" fill="#8DADE0"/>
</g>
<path opacity="0.51" d="M504.7 275.7L500.6 268.4C500.2 267.6 498.9 267.7 498.1 268.5L496.3 270.4H495.5L500.6 279.3C501 280 502.2 280 503 279.2L504.2 278C504.9 277.3 505.1 276.4 504.7 275.7Z" fill="white"/>
<path d="M499.1 269.6L503.2 276.9" stroke="#8DADE0" stroke-width="0.5" stroke-miterlimit="10" stroke-linecap="round"/>
<path d="M497.7 271.1L500 275.3" stroke="#8DADE0" stroke-width="0.5" stroke-miterlimit="10" stroke-linecap="round"/>
<g style="mix-blend-mode:multiply" opacity="0.55">
<path d="M482.1 283C481.8 283.4 481.4 283.5 481.2 283.3C481 283.1 481 282.6 481.3 282.2C481.6 281.9 482 281.8 482.2 282C482.4 282.2 482.4 282.7 482.1 283Z" fill="#8DADE0"/>
</g>
<path opacity="0.51" d="M490.7 289.6L486.6 282.3C486.1 281.5 484.9 281.5 484.1 282.4L482.2 284.3L481.5 284.2L486.5 293.1C487 293.9 488.2 293.9 489 293L490.2 291.9C490.8 291.2 491.1 290.2 490.7 289.6Z" fill="white"/>
<path d="M485 283.5L489.2 290.8" stroke="#8DADE0" stroke-width="0.5" stroke-miterlimit="10" stroke-linecap="round"/>
<path d="M483.6 284.9L486 289.1" stroke="#8DADE0" stroke-width="0.5" stroke-miterlimit="10" stroke-linecap="round"/>
<g style="mix-blend-mode:multiply" opacity="0.55">
<path d="M496.1 287.3C495.9 287.7 495.5 287.8 495.3 287.6C495 287.3 495.1 286.9 495.4 286.5C495.6 286.2 496 286.1 496.3 286.3C496.5 286.5 496.4 287 496.1 287.3Z" fill="#8DADE0"/>
</g>
<path opacity="0.51" d="M497.4 281.8L492.9 273.9C492.6 273.2 491.5 273.3 490.9 274L489.1 275.8C488.6 276.3 488.5 276.9 488.7 277.4L494.2 287L494.5 285.9L497 283.4C497.5 282.9 497.7 282.2 497.4 281.8Z" fill="white"/>
<path d="M491.5 275.3L495.7 282.7" stroke="#8DADE0" stroke-width="0.5" stroke-miterlimit="10" stroke-linecap="round"/>
<path d="M490.2 276.8L492.5 281" stroke="#8DADE0" stroke-width="0.5" stroke-miterlimit="10" stroke-linecap="round"/>
<path d="M492.9 281.7L493.8 283.3" stroke="#8DADE0" stroke-width="0.5" stroke-miterlimit="10" stroke-linecap="round"/>
<mask id="mask1_115_2839" style="mask-type:luminance" maskUnits="userSpaceOnUse" x="476" y="259" width="35" height="42">
<path d="M482.94 299.81L476.26 287.96C475.99 287.49 476.14 286.82 476.63 286.32L502.12 260.21C502.67 259.65 503.52 259.61 503.82 260.15L510.58 272.13C510.85 272.6 510.69 273.27 510.2 273.77L484.85 299.74C484.23 300.38 483.28 300.41 482.94 299.81Z" fill="white"/>
</mask>
<g mask="url(#mask1_115_2839)">
<path d="M512.4 267.9L513.8 270.9L473.6 294.9L472.2 291.8L512.4 267.9Z" fill="url(#paint2_linear_115_2839)"/>
<path d="M513.5 265.1L513.9 265.9L473.6 289.8L473.3 289L513.5 265.1Z" fill="url(#paint3_linear_115_2839)"/>
</g>
<path d="M410.1 291.5L421.1 318.4L472.1 288.7C472.1 288.7 485.6 302 483.9 309.8C458.1 332.4 423.3 372.5 400.5 362.3C381 353.6 361.1 292.8 361.1 292.8" fill="#DB6653"/>
<path d="M421.1 318.4C421.1 318.4 411 323.6 400.5 333.3" stroke="#B74539" stroke-width="1.5" stroke-miterlimit="10"/>
<path d="M478.7 314.2C478.7 314.2 497 298.6 500 295.3C502.9 292 510.8 282.9 509.2 282.1C507.5 281.2 498.5 289.2 497.2 290.6C492.9 290.7 483.9 294.1 481 299.9" fill="#DB6653"/>
<path d="M371.4 220C371.4 220 401.1 229.9 418.5 305.6C409.7 313.6 370.9 325.7 361.5 323.3C354.9 306 354.3 265.6 354.3 265.6" fill="#3E49E1"/>
<path d="M381 244C381 244 393.8 265.5 386.4 324.8C378.9 384 372.9 415.5 372.9 415.5C372.9 415.5 316.8 443.2 244.9 415.5C246.3 376 255.7 289 285 252C316.8 211.8 342.6 213.5 342.6 213.5L373.1 222.2L381 244Z" fill="#3E49E1"/>
<path d="M387.1 318.4C387.1 318.4 393.9 281.4 385.6 257.5" stroke="#152377" stroke-width="1.5" stroke-miterlimit="10"/>
<path d="M259.9 245.1C259.9 245.1 224 304 213.7 328.3C200.6 359.5 202.8 446.9 202.8 446.9L218.6 450.2L249.6 342.6L296 281.3" fill="#DB6653"/>
<path d="M342.6 213.5C342.6 213.5 292.1 207.6 267.2 232.4C242.9 256.7 227.4 291.2 227.4 291.2C227.4 291.2 259.5 329 299.4 324.4L327.9 253.3" fill="#3E49E1"/>
<path d="M227.4 291.2C227.4 291.2 259.5 329 299.4 324.4L327.9 253.3" stroke="#152377" stroke-width="1.5" stroke-miterlimit="10"/>
<path d="M222.3 435C221.8 440.9 222.9 452.8 222.4 458.7C222.2 462.1 221.4 468.1 220.1 468.3C216.8 468.7 219.5 459 217.9 459.2C216.9 459.3 216.5 466.8 216.3 470.7C216.1 474.1 215.4 478.6 213.6 479C211.4 479.4 212.6 460.3 212.6 460.3C212.6 460.3 210.6 480.3 208.7 480.6C205.9 480.9 207.8 460.7 207.8 460.7C207.8 460.7 205.9 477.8 203.8 478.1C201.8 478.3 203.5 465.8 203.4 460.6C202.7 464.3 201.7 474.1 200.2 474.3C198.7 474.5 198.6 467.1 198.8 465.3C199.7 454.3 203.3 432.9 203.3 432.9" fill="#DB6653"/>
<path d="M376.1 197L359.7 168.5L346.8 191.2L347.7 196.4L342.6 213.5C347.7 228.5 368.7 230.2 373.1 222.2L376.1 197Z" fill="#DB6653"/>
<path d="M390.6 158.8C393.3 168.9 394 203.3 385.9 206.9C377.8 210.6 361.3 207.1 356.5 201C352.4 195.6 348.4 167 355.9 160C363.4 153 386.9 144.6 390.6 158.8Z" fill="#DB6653"/>
<path d="M367.8 166.6C369.067 164.334 370.267 162.034 371.4 159.7C379.733 162.034 388.067 164.367 396.4 166.7C396.8 166.8 397.2 166.9 397.5 166.7C397.8 166.5 397.9 166.3 398.1 166C399.4 163.1 399.2 159.7 398.5 156.6C397.6 152.3 395.8 148 392.8 144.8C388.7 140.5 382.7 138.4 376.8 138.6C370.9 138.8 365.2 141.3 360.7 145C360.3 145.3 359.9 145.6 359.4 145.8C359 145.9 358.5 145.9 358.1 145.8C350.6 145.5 342.6 152 340.5 159C339.3 162.9 337.8 169.5 341.1 174.2C342.6 176.5 347 192.6 347 192.6C347 192.6 352.2 188.9 352.7 188.5C354.6 187 356.2 184.4 357.5 182.4C358.9 180.2 360.3 178 361.9 175.8C364.033 172.867 366 169.8 367.8 166.6Z" fill="#611223"/>
<path d="M360.7 180.3C359.7 178.5 358.4 176.4 356.5 176.3C355.6 176.2 354.6 176.6 353.9 177.3C350.3 180.8 350 187.4 353.8 190.9C355.4 192.4 357.6 193.1 359.1 191L361 181.5C361.2 181.1 360.9 180.7 360.7 180.3Z" fill="#DB6653"/>
<path d="M374.7 208.9C374.7 208.9 361.6 208.4 356.1 200.3" stroke="#B74539" stroke-width="1.5" stroke-miterlimit="10"/>
<path d="M384.4 176.1C384.4 176.1 389 185.7 387.1 188C385.3 190.4 381 188.5 381 188.5" stroke="#B74539" stroke-width="1.5" stroke-miterlimit="10"/>
<path d="M377.3 175C377.6 175.7 377.5 176.5 377.5 177.1C377.6 178 376.6 178.5 375.7 178.2C374.2 177.7 374.5 174 376.4 174.2C376.9 174.3 377.2 174.6 377.3 175Z" fill="#3F111D"/>
<path d="M390.4 175C390.7 175.7 390.6 176.5 390.6 177.1C390.7 178 389.7 178.5 388.8 178.2C387.3 177.7 387.6 174 389.5 174.2C390 174.3 390.3 174.6 390.4 175Z" fill="#3F111D"/>
<path d="M386.4 194.9L372.9 191C372.9 191 372.3 201.3 380.5 202.8C385.5 203.8 386.4 194.9 386.4 194.9Z" fill="white"/>
<path d="M378.4 170C375.8 170.1 373 170.7 370.7 171.6C370.5 171.5 369.8 170.3 370.2 169.6C370.5 169 374.6 167.6 378.2 167.7C378.2 167.7 378.9 169.7 378.4 170Z" fill="#3F111D"/>
<path d="M385.6 169.9C387.5 169.9 389.4 170.5 390.9 171.4C391.1 171.3 391.5 170.3 391.4 169.6C391.3 169 388.6 167.7 386 167.8C386 167.8 385.3 169.6 385.6 169.9Z" fill="#3F111D"/>
<path d="M352.2 188.9C352.2 188.9 354.9 192.9 358.4 191.7" stroke="#B74539" stroke-width="1.5" stroke-miterlimit="10"/>
<path d="M230.9 597.2C237.1 588.6 248.4 584.9 258.4 588C269.6 591.4 276.2 601.3 276.3 611.8C284.3 605.1 296.2 603.7 306 610C314.8 615.8 319.2 626.8 316.7 637C314.5 645.7 308.3 652 300.9 654.7L247.3 674.3L227.6 620.7C224.9 613.2 225.7 604.5 230.9 597.2Z" fill="#FF5061"/>
<path d="M256 655.4C256 655.4 278.7 617.7 317.1 637.2" stroke="#FFDAD7" stroke-width="1.5" stroke-miterlimit="10"/>
<path d="M267 642.7C265.7 613.9 237.5 609.1 226 615.5" stroke="#FFDAD7" stroke-width="1.5" stroke-miterlimit="10"/>
<path d="M287 632.3C287.3 625.9 275.2 610.7 259.1 622.2" stroke="#FFDAD7" stroke-width="1.5" stroke-miterlimit="10"/>
<path d="M308.7 633.6C308.7 633.6 306 610 276.4 619.1" stroke="#FFDAD7" stroke-width="1.5" stroke-miterlimit="10"/>
<path d="M238.7 612.8C244.4 589.9 278.2 590.8 275.4 618.8" stroke="#FFDAD7" stroke-width="1.5" stroke-miterlimit="10"/>
<path d="M241.4 657.4C242.2 656.8 243 656.9 243.7 657.1C245.8 657.6 247.5 659.3 248.3 661.6C248.4 660.3 248.6 658.9 249.2 657.6C250.7 655 253.7 654.8 255.1 656.7C256.4 658.5 256.6 661.4 256.8 664.1C256.9 664.3 256.9 664.6 257 664.7C257.2 665.1 257.8 664.9 258.2 664.7C261.4 663.5 264.5 665.2 265.5 668.6C265.6 669.1 265.7 669.6 265.5 670.2C265.2 671.3 264.1 671.8 263.2 672.1C258.2 674 247.2 678.8 247.2 678.8C247.2 678.8 242.1 669.3 240.4 664.6C240 663.5 239.6 662.4 239.7 661C239.8 659.7 240.4 658.1 241.4 657.4Z" fill="black"/>
<path d="M228.3 773.5C228.3 773.5 227.8 716.1 251.5 668.7" stroke="black" stroke-width="3" stroke-miterlimit="10"/>
<path d="M271.7 688.5C265.9 686.9 256.2 686.2 251.5 686.8C244.9 687.6 239.3 692.8 242.1 698.1C247.5 705.9 264.2 699.3 271.7 688.5Z" fill="black"/>
<path d="M220.3 671.6C221.1 677.6 224.3 686.9 226.7 690.9C230 696.6 237 699.8 240.8 695.2C245.8 687.1 233.2 674.3 220.3 671.6Z" fill="black"/>
<path d="M1002 595.2C995.8 585.3 983.6 580.3 972.3 582.9C959.7 585.8 951.6 596.3 950.7 607.9C942.3 599.9 929.3 597.5 918 603.7C907.7 609.3 902 621.2 904 632.7C905.8 642.5 912.2 649.9 920.2 653.5L978 679.3L1003.9 621.5C1007.5 613.4 1007.3 603.7 1002 595.2Z" fill="#FF5061"/>
<path d="M974.2 668.5C974.2 668.5 955 610.1 903.5 632.9" stroke="#FFDAD7" stroke-width="1.5" stroke-miterlimit="10"/>
<path d="M958.6 642.8C962.3 611 993.8 607.9 1006.1 615.8" stroke="#FFDAD7" stroke-width="1.5" stroke-miterlimit="10"/>
<path d="M937.3 629.7C937.4 622.7 952 606.8 968.9 620.8" stroke="#FFDAD7" stroke-width="1.5" stroke-miterlimit="10"/>
<path d="M913.2 629.6C913.2 629.6 918 603.7 950 616" stroke="#FFDAD7" stroke-width="1.5" stroke-miterlimit="10"/>
<path d="M992.2 611.9C987.7 586.1 950.2 584.5 951.1 615.7" stroke="#FFDAD7" stroke-width="1.5" stroke-miterlimit="10"/>
<path d="M986.5 663.5C985.7 662.9 984.8 663 984 663.2C981.7 663.8 979.8 665.7 979 668.4C978.8 666.9 978.6 665.3 977.9 663.9C976.2 661 972.8 660.9 971.4 663C969.9 665 969.8 668.3 969.6 671.3C969.5 671.5 969.5 671.7 969.4 671.9C969.2 672.4 968.5 672.1 968 672C964.5 670.7 961.1 672.6 960.1 676.4C959.9 676.9 959.8 677.5 960 678.1C960.4 679.3 961.6 679.9 962.6 680.3C968.3 682.2 980.5 687.4 980.5 687.4C980.5 687.4 986 676.8 987.8 671.5C988.2 670.3 988.6 669 988.5 667.5C988.4 666.1 987.7 664.3 986.5 663.5Z" fill="black"/>
<path d="M1004 773.5C1004 773.5 999 722 975.7 676.2" stroke="black" stroke-width="3" stroke-miterlimit="10"/>
<path d="M1012.6 669.6C1005.3 673.7 995.2 682.4 991.2 687.4C985.5 694.5 985 705 992.8 707.6C1005.6 710 1015.6 687.4 1012.6 669.6Z" fill="black"/>
<path d="M946 702.5C952.6 707.6 964.6 713.6 970.8 715.3C979.5 717.7 989.4 714.1 988.7 706C985.9 693.2 961.2 692.8 946 702.5Z" fill="black"/>
<path d="M1033.3 630.4C1037.7 623.7 1046.1 620.6 1053.8 622.6C1062.3 624.8 1067.6 632.1 1068 640C1073.9 634.7 1082.8 633.2 1090.3 637.7C1097.2 641.7 1100.9 649.9 1099.3 657.7C1097.9 664.3 1093.4 669.2 1087.9 671.5L1048.1 688L1031.6 648.2C1029.3 642.7 1029.6 636.1 1033.3 630.4Z" fill="#FF5061"/>
<path d="M1054.1 673.5C1054.1 673.5 1070 644.3 1099.6 657.8" stroke="#FFDAD7" stroke-width="1.5" stroke-miterlimit="10"/>
<path d="M1062 663.6C1060.1 641.9 1038.7 639.2 1030.1 644.3" stroke="#FFDAD7" stroke-width="1.5" stroke-miterlimit="10"/>
<path d="M1076.7 655C1076.8 650.3 1067.1 639.2 1055.4 648.4" stroke="#FFDAD7" stroke-width="1.5" stroke-miterlimit="10"/>
<path d="M1093.1 655.4C1093.1 655.4 1090.3 637.7 1068.3 645.4" stroke="#FFDAD7" stroke-width="1.5" stroke-miterlimit="10"/>
<path d="M1039.7 641.9C1043.2 624.4 1068.8 624 1067.6 645.3" stroke="#FFDAD7" stroke-width="1.5" stroke-miterlimit="10"/>
<path d="M1043.1 675.5C1043.7 675 1044.3 675 1044.9 675.2C1046.5 675.5 1047.8 676.7 1048.5 678.5C1048.5 677.4 1048.6 676.4 1049 675.4C1050 673.3 1052.4 673.2 1053.4 674.5C1054.5 675.8 1054.7 678 1055 680.1C1055 680.2 1055 680.4 1055.1 680.5C1055.3 680.8 1055.7 680.6 1056.1 680.5C1058.4 679.5 1060.8 680.6 1061.6 683.2C1061.8 683.5 1061.8 683.9 1061.7 684.3C1061.5 685.2 1060.7 685.6 1060.1 685.9C1056.3 687.5 1048.2 691.5 1048.2 691.5C1048.2 691.5 1044 684.4 1042.6 681C1042.3 680.2 1042 679.3 1042 678.3C1042 677.3 1042.4 676.1 1043.1 675.5Z" fill="black"/>
<path d="M1025.3 773.5C1025.3 773.5 1026.3 720.9 1050.5 687.5" stroke="black" stroke-width="3" stroke-miterlimit="10"/>
<path d="M1017 697.4C1022.1 699.9 1029.3 705.4 1032.2 708.6C1036.4 713.3 1037.2 720.3 1032 722.4C1023.3 724.5 1015.6 709.6 1017 697.4Z" fill="black"/>
<path d="M1063.5 717.1C1059.3 720.8 1051.4 725.3 1047.2 726.8C1041.4 728.7 1034.5 726.7 1034.7 721.1C1036.1 712.3 1052.8 711.1 1063.5 717.1Z" fill="black"/>
<path d="M549.5 195.5H415.8L427.6 185.4V165.5C427.6 149 441 135.6 457.5 135.6H549.5C566 135.6 579.4 149 579.4 165.5C579.4 182.1 566 195.5 549.5 195.5Z" fill="white"/>
<path d="M655.8 368.2H522.1L533.9 358.1V338.2C533.9 321.7 547.3 308.3 563.8 308.3H655.8C672.3 308.3 685.7 321.7 685.7 338.2C685.7 354.8 672.3 368.2 655.8 368.2Z" fill="#FFDAD7" stroke="white" stroke-width="3" stroke-linejoin="round"/>
<path d="M67.3 497.1H100.5" stroke="white" stroke-width="3" stroke-linecap="round" stroke-linejoin="round"/>
<path d="M109.8 497.1H124.4" stroke="white" stroke-width="3" stroke-linecap="round" stroke-linejoin="round"/>
<path d="M686 166H719.1" stroke="white" stroke-width="3" stroke-linecap="round" stroke-linejoin="round"/>
<path d="M728.4 166H743" stroke="white" stroke-width="3" stroke-linecap="round" stroke-linejoin="round"/>
<path d="M720 620.5V629.8" stroke="white" stroke-width="3" stroke-linecap="round" stroke-linejoin="round"/>
<path d="M724.6 625.1H715.4" stroke="white" stroke-width="3" stroke-linecap="round" stroke-linejoin="round"/>
<path d="M959.9 480.2V489.5" stroke="white" stroke-width="3" stroke-linecap="round" stroke-linejoin="round"/>
<path d="M964.6 484.9H955.3" stroke="white" stroke-width="3" stroke-linecap="round" stroke-linejoin="round"/>
<path d="M712.4 345.1V354.3" stroke="white" stroke-width="3" stroke-linecap="round" stroke-linejoin="round"/>
<path d="M717 349.7H707.7" stroke="white" stroke-width="3" stroke-linecap="round" stroke-linejoin="round"/>
<path d="M186.7 319V328.3" stroke="white" stroke-width="3" stroke-linecap="round" stroke-linejoin="round"/>
<path d="M191.3 323.6H182.1" stroke="white" stroke-width="3" stroke-linecap="round" stroke-linejoin="round"/>
<path d="M661.6 121.2V130.5" stroke="white" stroke-width="3" stroke-linecap="round" stroke-linejoin="round"/>
<path d="M666.2 125.8H656.9" stroke="white" stroke-width="3" stroke-linecap="round" stroke-linejoin="round"/>
<path d="M884.2 38.7002V48.0002" stroke="white" stroke-width="3" stroke-linecap="round" stroke-linejoin="round"/>
<path d="M888.8 43.4001H879.6" stroke="white" stroke-width="3" stroke-linecap="round" stroke-linejoin="round"/>
<path d="M1118.9 408.4V417.6" stroke="white" stroke-width="3" stroke-linecap="round" stroke-linejoin="round"/>
<path d="M1123.5 413H1114.3" stroke="white" stroke-width="3" stroke-linecap="round" stroke-linejoin="round"/>
<path d="M548 243.6C548 246.1 546 248.1 543.6 248.1C541.1 248.1 539.1 246.1 539.1 243.6C539.1 241.2 541.1 239.2 543.6 239.2C546 239.2 548 241.2 548 243.6Z" stroke="white" stroke-width="3" stroke-linecap="round" stroke-linejoin="round"/>
<path d="M720.8 93.5C720.8 95.9 718.8 97.9 716.4 97.9C713.9 97.9 712 95.9 712 93.5C712 91 713.9 89 716.4 89C718.8 89 720.8 91 720.8 93.5Z" stroke="white" stroke-width="3" stroke-linecap="round" stroke-linejoin="round"/>
<path d="M309.1 43.4C309.1 45.8 307.1 47.8 304.7 47.8C302.2 47.8 300.3 45.8 300.3 43.4C300.3 40.9 302.2 39 304.7 39C307.1 39 309.1 40.9 309.1 43.4Z" stroke="white" stroke-width="3" stroke-linecap="round" stroke-linejoin="round"/>
<path d="M1026.1 345.3C1026.1 347.7 1024.1 349.7 1021.6 349.7C1019.2 349.7 1017.2 347.7 1017.2 345.3C1017.2 342.8 1019.2 340.9 1021.6 340.9C1024.1 340.9 1026.1 342.8 1026.1 345.3Z" stroke="white" stroke-width="3" stroke-linecap="round" stroke-linejoin="round"/>
<path d="M1099.7 540.9C1099.7 543.4 1097.7 545.3 1095.2 545.3C1092.8 545.3 1090.8 543.4 1090.8 540.9C1090.8 538.5 1092.8 536.5 1095.2 536.5C1097.7 536.5 1099.7 538.5 1099.7 540.9Z" stroke="white" stroke-width="3" stroke-linecap="round" stroke-linejoin="round"/>
<path d="M68.9001 644.7C68.9001 647.1 66.9001 649.1 64.5001 649.1C62.1001 649.1 60.1001 647.1 60.1001 644.7C60.1001 642.3 62.1001 640.3 64.5001 640.3C66.9001 640.3 68.9001 642.3 68.9001 644.7Z" stroke="white" stroke-width="3" stroke-linecap="round" stroke-linejoin="round"/>
<path d="M493.3 560.7C493.3 563.1 491.3 565.1 488.8 565.1C486.4 565.1 484.4 563.1 484.4 560.7C484.4 558.2 486.4 556.3 488.8 556.3C491.3 556.3 493.3 558.2 493.3 560.7Z" stroke="white" stroke-width="3" stroke-linecap="round" stroke-linejoin="round"/>
<path d="M153.4 268.8C153.4 271.2 151.5 273.2 149 273.2C146.6 273.2 144.6 271.2 144.6 268.8C144.6 266.4 146.6 264.4 149 264.4C151.5 264.4 153.4 266.4 153.4 268.8Z" stroke="white" stroke-width="3" stroke-linecap="round" stroke-linejoin="round"/>
<path d="M554.2 342.6H626.3" stroke="white" stroke-width="3" stroke-linecap="round" stroke-linejoin="round"/>
<path d="M1081.4 603.7H1117.9" stroke="white" stroke-width="3" stroke-linecap="round" stroke-linejoin="round"/>
<path d="M1042.9 251.9C1042 246.3 1037.5 241.8 1031.9 240.8C1025.5 239.7 1019.8 243.1 1017.3 248.3C1014.8 243.1 1009.2 239.7 1002.8 240.8C997.2 241.8 992.7 246.4 991.8 251.9C991.1 256.5 992.7 260.8 995.6 263.7L1014.9 283C1016.2 284.3 1018.4 284.3 1019.8 283L1039.1 263.7C1042 260.8 1043.6 256.5 1042.9 251.9Z" fill="#FF5061"/>
<path d="M1017.3 214.7V222.3" stroke="white" stroke-width="3" stroke-linecap="round" stroke-linejoin="round"/>
<path d="M1017.3 296.1V303.7" stroke="white" stroke-width="3" stroke-linecap="round" stroke-linejoin="round"/>
<path d="M1061.8 259.2H1054.2" stroke="white" stroke-width="3" stroke-linecap="round" stroke-linejoin="round"/>
<path d="M980.5 259.2H972.9" stroke="white" stroke-width="3" stroke-linecap="round" stroke-linejoin="round"/>
<path d="M985.9 227.8L991.3 233.1" stroke="white" stroke-width="3" stroke-linecap="round" stroke-linejoin="round"/>
<path d="M1043.4 285.3L1048.8 290.6" stroke="white" stroke-width="3" stroke-linecap="round" stroke-linejoin="round"/>
<path d="M1048.8 227.8L1043.4 233.1" stroke="white" stroke-width="3" stroke-linecap="round" stroke-linejoin="round"/>
<path d="M991.3 285.3L985.9 290.6" stroke="white" stroke-width="3" stroke-linecap="round" stroke-linejoin="round"/>
<path d="M1000.3 218.1L1003.2 225.1" stroke="white" stroke-width="3" stroke-linecap="round" stroke-linejoin="round"/>
<path d="M1031.4 293.3L1034.4 300.3" stroke="white" stroke-width="3" stroke-linecap="round" stroke-linejoin="round"/>
<path d="M1058.4 242.2L1051.4 245.1" stroke="white" stroke-width="3" stroke-linecap="round" stroke-linejoin="round"/>
<path d="M983.3 273.3L976.3 276.2" stroke="white" stroke-width="3" stroke-linecap="round" stroke-linejoin="round"/>
<path d="M976.3 242.2L983.3 245.1" stroke="white" stroke-width="3" stroke-linecap="round" stroke-linejoin="round"/>
<path d="M1051.4 273.3L1058.4 276.2" stroke="white" stroke-width="3" stroke-linecap="round" stroke-linejoin="round"/>
<path d="M1034.4 218.1L1031.4 225.1" stroke="white" stroke-width="3" stroke-linecap="round" stroke-linejoin="round"/>
<path d="M1003.2 293.3L1000.3 300.3" stroke="white" stroke-width="3" stroke-linecap="round" stroke-linejoin="round"/>
<path d="M112.7 364.1C111.9 358.5 107.3 353.9 101.7 353C95.4001 351.9 89.7001 355.3 87.2001 360.5C84.7001 355.3 79.0001 351.9 72.7001 353C67.1001 353.9 62.6001 358.5 61.7001 364.1C61.0001 368.7 62.6001 372.9 65.5001 375.9L84.7001 395.1C86.1001 396.5 88.3001 396.5 89.7001 395.1L108.9 375.9C111.9 372.9 113.5 368.7 112.7 364.1Z" fill="#FF5061"/>
<path d="M87.2001 326.9V334.5" stroke="white" stroke-width="3" stroke-linecap="round" stroke-linejoin="round"/>
<path d="M87.2001 408.2V415.8" stroke="white" stroke-width="3" stroke-linecap="round" stroke-linejoin="round"/>
<path d="M131.7 371.4H124.1" stroke="white" stroke-width="3" stroke-linecap="round" stroke-linejoin="round"/>
<path d="M50.3001 371.4H42.7001" stroke="white" stroke-width="3" stroke-linecap="round" stroke-linejoin="round"/>
<path d="M55.8 339.9L61.1001 345.3" stroke="white" stroke-width="3" stroke-linecap="round" stroke-linejoin="round"/>
<path d="M113.3 397.4L118.6 402.8" stroke="white" stroke-width="3" stroke-linecap="round" stroke-linejoin="round"/>
<path d="M118.6 339.9L113.3 345.3" stroke="white" stroke-width="3" stroke-linecap="round" stroke-linejoin="round"/>
<path d="M61.1001 397.4L55.8 402.8" stroke="white" stroke-width="3" stroke-linecap="round" stroke-linejoin="round"/>
<path d="M70.2001 330.3L73.1001 337.3" stroke="white" stroke-width="3" stroke-linecap="round" stroke-linejoin="round"/>
<path d="M101.3 405.4L104.2 412.4" stroke="white" stroke-width="3" stroke-linecap="round" stroke-linejoin="round"/>
<path d="M128.3 354.3L121.3 357.2" stroke="white" stroke-width="3" stroke-linecap="round" stroke-linejoin="round"/>
<path d="M53.1001 385.5L46.1001 388.4" stroke="white" stroke-width="3" stroke-linecap="round" stroke-linejoin="round"/>
<path d="M46.1001 354.3L53.1001 357.2" stroke="white" stroke-width="3" stroke-linecap="round" stroke-linejoin="round"/>
<path d="M121.3 385.5L128.3 388.4" stroke="white" stroke-width="3" stroke-linecap="round" stroke-linejoin="round"/>
<path d="M104.2 330.3L101.3 337.3" stroke="white" stroke-width="3" stroke-linecap="round" stroke-linejoin="round"/>
<path d="M73.1001 405.4L70.2001 412.4" stroke="white" stroke-width="3" stroke-linecap="round" stroke-linejoin="round"/>
<path d="M587.4 50C586.3 42.7 580.4 36.8 573.1 35.5C564.8 34.1 557.4 38.5 554.2 45.3C550.9 38.5 543.6 34.1 535.2 35.5C528 36.8 522.1 42.7 520.9 50C520 56 522.1 61.5 525.9 65.3L551 90.4C552.7 92.2 555.6 92.2 557.4 90.4L582.5 65.3C586.3 61.5 588.4 56 587.4 50Z" fill="#FF5061"/>
<path d="M554.2 1.6001V11.4001" stroke="white" stroke-width="3" stroke-linecap="round" stroke-linejoin="round"/>
<path d="M554.2 107.5V117.4" stroke="white" stroke-width="3" stroke-linecap="round" stroke-linejoin="round"/>
<path d="M612.1 59.5H602.2" stroke="white" stroke-width="3" stroke-linecap="round" stroke-linejoin="round"/>
<path d="M506.1 59.5H496.3" stroke="white" stroke-width="3" stroke-linecap="round" stroke-linejoin="round"/>
<path d="M513.2 18.5L520.2 25.5" stroke="white" stroke-width="3" stroke-linecap="round" stroke-linejoin="round"/>
<path d="M588.2 93.5L595.1 100.4" stroke="white" stroke-width="3" stroke-linecap="round" stroke-linejoin="round"/>
<path d="M595.1 18.5L588.2 25.5" stroke="white" stroke-width="3" stroke-linecap="round" stroke-linejoin="round"/>
<path d="M520.2 93.5L513.2 100.4" stroke="white" stroke-width="3" stroke-linecap="round" stroke-linejoin="round"/>
<path d="M532 6L535.8 15.1" stroke="white" stroke-width="3" stroke-linecap="round" stroke-linejoin="round"/>
<path d="M572.6 103.9L576.4 113" stroke="white" stroke-width="3" stroke-linecap="round" stroke-linejoin="round"/>
<path d="M607.7 37.3L598.6 41.1001" stroke="white" stroke-width="3" stroke-linecap="round" stroke-linejoin="round"/>
<path d="M509.8 77.9001L500.7 81.6002" stroke="white" stroke-width="3" stroke-linecap="round" stroke-linejoin="round"/>
<path d="M500.7 37.3L509.8 41.1001" stroke="white" stroke-width="3" stroke-linecap="round" stroke-linejoin="round"/>
<path d="M598.6 77.9001L607.7 81.6002" stroke="white" stroke-width="3" stroke-linecap="round" stroke-linejoin="round"/>
<path d="M576.4 6L572.6 15.1" stroke="white" stroke-width="3" stroke-linecap="round" stroke-linejoin="round"/>
<path d="M535.8 103.9L532 113" stroke="white" stroke-width="3" stroke-linecap="round" stroke-linejoin="round"/>
<path d="M476.5 165.5C476.5 176.4 467.7 185.2 456.9 185.2C446 185.2 437.2 176.4 437.2 165.5C437.2 154.7 446 145.9 456.9 145.9C467.7 145.9 476.5 154.7 476.5 165.5Z" fill="#FFC9C2"/>
<path d="M478.5 173.1C478.9 171.8 478.4 170.3 477.4 169.5C476.1 168.6 474.5 168.7 473.5 169.5C473.5 168.1 472.7 166.8 471.2 166.3C469.9 165.9 468.4 166.4 467.7 167.5C467 168.4 466.9 169.5 467.2 170.4L469.2 176.6C469.3 177 469.8 177.3 470.2 177.1L476.4 175.1C477.3 174.8 478.1 174.1 478.5 173.1Z" fill="#FF5061"/>
<path d="M451.9 165.5C451.9 167.2 451.1 168.5 450.1 168.5C449.1 168.5 448.2 167.2 448.2 165.5C448.2 163.9 449.1 162.5 450.1 162.5C451.1 162.5 451.9 163.9 451.9 165.5Z" fill="white"/>
<path d="M445.3 160.7C445.167 160.7 445.067 160.7 445 160.7C444.7 160.5 444.5 160.1 444.7 159.7C444.8 159.6 446.7 155.5 451.9 155.5C452.3 155.5 452.6 155.8 452.6 156.2C452.6 156.6 452.3 156.9 451.9 156.9C447.6 156.9 445.9 160.3 445.9 160.3C445.8 160.6 445.6 160.7 445.3 160.7Z" fill="white"/>
<path d="M469.4 161.9C469.2 161.9 469.033 161.8 468.9 161.6C468.8 161.5 466.3 158.7 462.2 159.9C461.8 160 461.5 159.8 461.3 159.4C461.2 159 461.5 158.6 461.8 158.5C466.8 157.2 469.8 160.6 469.9 160.7C470.2 161 470.1 161.4 469.8 161.7C469.667 161.833 469.533 161.9 469.4 161.9Z" fill="white"/>
<path d="M462.3 166.2C462.1 166.2 461.967 166.167 461.9 166.1C461.6 165.9 461.5 165.4 461.7 165.1C463.8 162.4 466.8 163.2 468.1 164.1C468.4 164.3 468.5 164.7 468.3 165C468.1 165.4 467.7 165.4 467.4 165.2C467.1 165.1 464.6 163.6 462.8 165.9C462.7 166.1 462.5 166.2 462.3 166.2Z" fill="white"/>
<path d="M457.6 179C457.4 179 457.233 178.9 457.1 178.7C456.9 178.4 456.9 178 457.2 177.7L459.2 176.1L457.9 175.6C457.7 175.5 457.6 175.3 457.5 175.1C457.5 174.9 457.6 174.6 457.7 174.5L459 173.2L456.6 172.3C456.3 172.2 456.1 171.8 456.2 171.4C456.4 171.1 456.8 170.9 457.1 171L460.5 172.3C460.7 172.4 460.9 172.6 460.9 172.8C461 173.1 460.9 173.3 460.7 173.5L459.4 174.7L460.8 175.3C461 175.4 461.2 175.6 461.2 175.9C461.3 176.1 461.2 176.4 461 176.5L458.1 178.8C457.967 178.933 457.8 179 457.6 179Z" fill="white"/>
<path d="M522.8 165.5C522.8 176.4 514 185.2 503.1 185.2C492.3 185.2 483.5 176.4 483.5 165.5C483.5 154.7 492.3 145.9 503.1 145.9C514 145.9 522.8 154.7 522.8 165.5Z" fill="#FFC9C2"/>
<path d="M524.7 173.1C525.1 171.8 524.7 170.3 523.6 169.5C522.4 168.6 520.8 168.7 519.7 169.5C519.7 168.1 518.9 166.8 517.4 166.3C516.2 165.9 514.7 166.4 513.9 167.5C513.2 168.4 513.1 169.5 513.4 170.4L515.4 176.6C515.5 177 516 177.3 516.5 177.1L522.6 175.1C523.6 174.8 524.4 174.1 524.7 173.1Z" fill="#FF5061"/>
<path d="M498.1 165.5C498.1 167.2 497.3 168.5 496.3 168.5C495.3 168.5 494.5 167.2 494.5 165.5C494.5 163.9 495.3 162.5 496.3 162.5C497.3 162.5 498.1 163.9 498.1 165.5Z" fill="white"/>
<path d="M491.5 160.7C491.433 160.7 491.333 160.7 491.2 160.7C490.9 160.5 490.8 160.1 490.9 159.7C491 159.6 493 155.5 498.1 155.5C498.5 155.5 498.8 155.8 498.8 156.2C498.8 156.6 498.5 156.9 498.1 156.9C493.8 156.9 492.2 160.3 492.2 160.3C492 160.6 491.8 160.7 491.5 160.7Z" fill="white"/>
<path d="M515.6 161.9C515.4 161.9 515.233 161.8 515.1 161.6C515 161.5 512.5 158.7 508.4 159.9C508.1 160 507.7 159.8 507.6 159.4C507.5 159 507.7 158.6 508.1 158.5C513 157.2 516 160.6 516.2 160.7C516.4 161 516.4 161.4 516.1 161.7C515.967 161.833 515.8 161.9 515.6 161.9Z" fill="white"/>
<path d="M508.5 166.2C508.367 166.2 508.233 166.167 508.1 166.1C507.8 165.9 507.7 165.4 508 165.1C510 162.4 513 163.2 514.3 164.1C514.7 164.3 514.8 164.7 514.5 165C514.3 165.4 513.9 165.4 513.6 165.2C513.3 165.1 510.8 163.6 509.1 165.9C508.9 166.1 508.7 166.2 508.5 166.2Z" fill="white"/>
<path d="M503.9 179C503.7 179 503.533 178.9 503.4 178.7C503.1 178.4 503.2 178 503.5 177.7L505.5 176.1L504.2 175.6C504 175.5 503.8 175.3 503.8 175.1C503.7 174.9 503.8 174.6 504 174.5L505.3 173.2L502.9 172.3C502.5 172.2 502.4 171.8 502.5 171.4C502.6 171.1 503 170.9 503.4 171L506.8 172.3C507 172.4 507.1 172.6 507.2 172.8C507.2 173.1 507.2 173.3 507 173.5L505.7 174.7L507.1 175.3C507.3 175.4 507.4 175.6 507.5 175.9C507.5 176.1 507.4 176.4 507.2 176.5L504.3 178.8C504.167 178.933 504.033 179 503.9 179Z" fill="white"/>
<path d="M569 165.5C569 176.4 560.2 185.2 549.4 185.2C538.5 185.2 529.7 176.4 529.7 165.5C529.7 154.7 538.5 145.9 549.4 145.9C560.2 145.9 569 154.7 569 165.5Z" fill="#FFC9C2"/>
<path d="M571 173.1C571.4 171.8 570.9 170.3 569.9 169.5C568.6 168.6 567 168.7 566 169.5C566 168.1 565.2 166.8 563.7 166.3C562.4 165.9 560.9 166.4 560.1 167.5C559.5 168.4 559.4 169.5 559.7 170.4L561.7 176.6C561.8 177 562.3 177.3 562.7 177.1L568.9 175.1C569.8 174.8 570.6 174.1 571 173.1Z" fill="#FF5061"/>
<path d="M544.4 165.5C544.4 167.2 543.6 168.5 542.6 168.5C541.6 168.5 540.7 167.2 540.7 165.5C540.7 163.9 541.6 162.5 542.6 162.5C543.6 162.5 544.4 163.9 544.4 165.5Z" fill="white"/>
<path d="M537.8 160.7C537.667 160.7 537.567 160.7 537.5 160.7C537.2 160.5 537 160.1 537.2 159.7C537.2 159.6 539.2 155.5 544.4 155.5C544.8 155.5 545.1 155.8 545.1 156.2C545.1 156.6 544.8 156.9 544.4 156.9C540.1 156.9 538.4 160.3 538.4 160.3C538.3 160.6 538 160.7 537.8 160.7Z" fill="white"/>
<path d="M561.9 161.9C561.7 161.9 561.533 161.8 561.4 161.6C561.3 161.5 558.8 158.7 554.7 159.9C554.3 160 553.9 159.8 553.8 159.4C553.7 159 554 158.6 554.3 158.5C559.3 157.2 562.3 160.6 562.4 160.7C562.7 161 562.6 161.4 562.3 161.7C562.167 161.833 562.033 161.9 561.9 161.9Z" fill="white"/>
<path d="M554.8 166.2C554.6 166.2 554.467 166.167 554.4 166.1C554.1 165.9 554 165.4 554.2 165.1C556.3 162.4 559.3 163.2 560.6 164.1C560.9 164.3 561 164.7 560.8 165C560.6 165.4 560.2 165.4 559.8 165.2C559.6 165.1 557.1 163.6 555.3 165.9C555.2 166.1 555 166.2 554.8 166.2Z" fill="white"/>
<path d="M550.1 179C549.9 179 549.733 178.9 549.6 178.7C549.4 178.4 549.4 178 549.7 177.7L551.7 176.1L550.4 175.6C550.2 175.5 550.1 175.3 550 175.1C550 174.9 550.1 174.6 550.2 174.5L551.5 173.2L549.1 172.3C548.8 172.2 548.6 171.8 548.7 171.4C548.9 171.1 549.3 170.9 549.6 171L553 172.3C553.2 172.4 553.4 172.6 553.4 172.8C553.5 173.1 553.4 173.3 553.2 173.5L551.9 174.7L553.3 175.3C553.5 175.4 553.7 175.6 553.7 175.9C553.8 176.1 553.7 176.4 553.5 176.5L550.6 178.8C550.467 178.933 550.3 179 550.1 179Z" fill="white"/>
<path d="M615.9 258.7H749.5L737.7 248.6V228.8C737.7 212.2 724.3 198.8 707.8 198.8H615.9C599.3 198.8 585.9 212.2 585.9 228.8C585.9 245.3 599.3 258.7 615.9 258.7Z" fill="white"/>
<path d="M688.3 221.9C688.8 218.2 691.8 215.1 695.6 214.5C699.8 213.8 703.6 216 705.2 219.5C706.9 216 710.6 213.8 714.9 214.5C718.6 215.1 721.6 218.2 722.2 221.9C722.7 224.9 721.6 227.8 719.7 229.7L706.9 242.5C706 243.4 704.5 243.4 703.6 242.5L690.8 229.7C688.8 227.8 687.8 224.9 688.3 221.9Z" fill="#FF5061"/>
<path d="M644.6 221.9C645.2 218.2 648.2 215.1 651.9 214.5C656.1 213.8 659.9 216 661.6 219.5C663.2 216 667 213.8 671.2 214.5C674.9 215.1 678 218.2 678.5 221.9C679 224.9 678 227.8 676 229.7L663.2 242.5C662.3 243.4 660.8 243.4 659.9 242.5L647.1 229.7C645.2 227.8 644.1 224.9 644.6 221.9Z" fill="#FF5061"/>
<path d="M600.9 221.9C601.5 218.2 604.5 215.1 608.3 214.5C612.5 213.8 616.3 216 617.9 219.5C619.6 216 623.3 213.8 627.6 214.5C631.3 215.1 634.3 218.2 634.9 221.9C635.4 224.9 634.3 227.8 632.4 229.7L619.6 242.5C618.7 243.4 617.2 243.4 616.3 242.5L603.5 229.7C601.5 227.8 600.5 224.9 600.9 221.9Z" fill="#FF5061"/>
<path d="M0.800049 773.5H1225.2" stroke="white" stroke-width="3" stroke-linejoin="round"/>
<path d="M635.1 342.6H658.8" stroke="white" stroke-width="3" stroke-linecap="round" stroke-linejoin="round"/>
<path d="M660.6 444.5H794.2L782.5 434.4V414.5C782.5 398 769.1 384.6 752.5 384.6H660.6C644.1 384.6 630.7 398 630.7 414.5C630.7 431.1 644.1 444.5 660.6 444.5Z" fill="#FFDAD7" stroke="white" stroke-width="3" stroke-linejoin="round"/>
<path d="M655 421.3H747.2" stroke="white" stroke-width="3" stroke-linecap="round" stroke-linejoin="round"/>
<defs>
<linearGradient id="paint0_linear_115_2839" x1="698.106" y1="421.099" x2="730.726" y2="423.343" gradientUnits="userSpaceOnUse">
<stop stop-color="white" stop-opacity="0.6"/>
<stop offset="0.888" stop-color="white" stop-opacity="0.1"/>
</linearGradient>
<linearGradient id="paint1_linear_115_2839" x1="697.454" y1="514.488" x2="727.525" y2="516.558" gradientUnits="userSpaceOnUse">
<stop stop-color="white" stop-opacity="0.6"/>
<stop offset="0.888" stop-color="white" stop-opacity="0.1"/>
</linearGradient>
<linearGradient id="paint2_linear_115_2839" x1="529.302" y1="299.203" x2="485.474" y2="324.055" gradientUnits="userSpaceOnUse">
<stop stop-color="white" stop-opacity="0.6"/>
<stop offset="0.888" stop-color="white" stop-opacity="0.1"/>
</linearGradient>
<linearGradient id="paint3_linear_115_2839" x1="528.938" y1="296.443" x2="487.487" y2="319.956" gradientUnits="userSpaceOnUse">
<stop stop-color="white" stop-opacity="0.6"/>
<stop offset="0.888" stop-color="white" stop-opacity="0.1"/>
</linearGradient>
</defs>
</svg>
