<svg width="1657" height="442" viewBox="0 0 1657 442" fill="none" xmlns="http://www.w3.org/2000/svg">
<g clip-path="url(#clip0_112_2822)">
<path d="M723.365 327.384C723.365 344.725 735.606 355.266 750.567 355.266C786.78 355.266 786.78 299.672 750.567 299.672C735.606 299.672 723.365 310.212 723.365 327.384ZM778.28 285.561H795.281V369.377H778.62L777.769 355.776C772.159 366.487 759.238 371.587 748.867 371.587C724.386 371.757 705.854 355.946 705.854 327.384C705.854 299.331 725.065 283.691 749.208 283.691C761.108 283.691 772.5 289.301 777.769 298.822L778.28 285.561Z" fill="#D80232"/>
<path d="M846.112 261.418V285.73H870.594V300.861H845.942V340.814C845.942 349.655 849.853 354.586 858.013 354.586C861.414 354.586 865.324 353.396 868.724 351.695L873.825 366.656C868.045 369.207 862.944 370.397 856.993 370.397C838.801 370.907 828.431 360.536 828.431 340.814V300.861H812.28V285.73H828.431V263.289L846.112 261.418Z" fill="#D80232"/>
<path d="M667.092 278.25L626.629 334.524H622.549L582.596 278.25V369.547H563.554V250.537H585.655L624.929 306.302L664.032 250.537H686.134V369.547H667.092V278.25Z" fill="#D80232"/>
<path d="M959.172 358.496C949.82 367.677 939.45 371.587 927.379 371.587C903.237 371.587 883.176 356.456 883.176 327.554C883.176 298.651 903.068 283.52 927.379 283.52C938.94 283.52 948.631 287.091 957.642 295.932L946.421 307.662C941.151 302.561 934.18 300.182 927.549 300.182C912.418 300.182 900.687 310.892 900.687 327.554C900.687 345.235 912.928 354.586 927.379 354.586C934.52 354.586 941.83 352.376 947.271 346.766L959.172 358.496Z" fill="#D80232"/>
<path d="M992.322 250.368V297.972C999.633 287.771 1009.49 284.371 1019.52 284.371C1043.16 284.371 1054.04 300.182 1054.04 324.154V369.378H1036.53V324.324C1036.53 308.513 1028.37 300.692 1015.44 300.692C1001.84 300.692 992.322 311.913 992.322 325.684V369.378H974.811V250.368H992.322Z" fill="#D80232"/>
<path d="M1133.94 369.377V323.304C1133.94 310.893 1126.8 300.522 1114.39 300.522C1101.98 300.522 1094.16 310.893 1094.16 323.304V369.377H1076.65V285.391H1092.97L1094.16 296.611C1098.92 287.431 1108.78 284.03 1117.62 284.03C1128.33 284.03 1139.21 288.45 1143.97 300.861C1150.77 288.45 1161.32 284.2 1172.71 284.2C1195.83 284.2 1208.24 298.821 1208.24 322.963V369.377H1190.56V322.963C1190.56 310.553 1184.44 300.691 1172.03 300.691C1159.62 300.691 1151.63 310.893 1151.63 323.304V369.377H1133.94Z" fill="#D80232"/>
<path d="M1243.26 327.384C1243.26 344.725 1255.5 355.266 1270.46 355.266C1306.68 355.266 1306.68 299.672 1270.46 299.672C1255.5 299.672 1243.26 310.212 1243.26 327.384ZM1298.18 285.561H1315.18V369.377H1298.52L1297.67 355.776C1292.06 366.487 1279.13 371.587 1268.76 371.587C1244.28 371.757 1225.75 355.946 1225.75 327.384C1225.75 299.331 1244.96 283.691 1269.1 283.691C1281 283.691 1292.4 289.301 1297.67 298.822L1298.18 285.561Z" fill="#D80232"/>
<path d="M1356.66 250.538V319.904L1387.77 285.561H1409.02V286.581L1372.81 325.005L1413.95 368.187V369.378H1392.53L1356.66 330.615V369.378H1338.98V250.538H1356.66Z" fill="#D80232"/>
<path d="M1426.36 369.377H1443.87V285.221H1426.36V369.377ZM1446.08 260.908C1446.08 275.36 1424.32 275.36 1424.32 260.908C1424.32 246.627 1446.08 246.627 1446.08 260.908Z" fill="#D80232"/>
<path d="M1531.26 369.377V324.493C1531.26 310.042 1523.1 300.352 1508.65 300.352C1494.71 300.352 1485.19 311.742 1485.19 325.514V369.377H1467.67V285.391H1483.66L1484.68 297.631C1492.67 288.62 1502.02 284.2 1512.9 284.2C1533.3 284.2 1548.94 298.651 1548.94 324.323V369.377H1531.26Z" fill="#D80232"/>
<path d="M1583.96 325.174C1583.96 341.835 1596.54 350.846 1611.67 350.846C1627.14 350.846 1638.88 340.305 1638.88 325.174C1638.88 308.683 1626.12 299.331 1611.67 299.331C1597.39 299.331 1583.96 307.662 1583.96 325.174ZM1643.47 277.57L1656.22 287.431L1646.19 299.161C1653.16 307.322 1656.39 314.803 1656.39 325.174C1656.39 339.965 1649.08 352.035 1634.11 357.817C1651.29 363.597 1656.22 375.157 1656.22 385.189C1656.22 407.97 1633.77 419.362 1611.33 419.362C1583.96 419.362 1566.45 405.42 1567.13 382.128H1584.64C1584.13 395.219 1597.39 402.19 1611.33 402.36C1624.25 402.36 1638.02 397.089 1638.02 385.189C1638.02 373.457 1627.31 366.997 1611.67 366.997C1584.47 366.997 1566.28 351.356 1566.28 325.174C1566.28 297.121 1588.89 283.01 1611.67 283.01C1618.64 283.01 1628.33 284.71 1634.28 288.791L1643.47 277.57Z" fill="#D80232"/>
<path d="M183.535 131.122C183.561 131.176 183.535 131.203 183.481 131.229L182.946 131.684C182.705 131.872 182.517 131.845 182.33 131.604C163.641 107.319 131.94 87.3195 104.282 77.4935C67.5469 64.4265 21.3069 63.5165 4.30491 104.561C-2.49509 120.921 -1.0501 142.448 7.3039 158.191C24.3859 190.348 59.4069 209.92 94.1069 220.068C130.789 230.805 166.533 231.527 209.104 228.475C236.977 226.467 262.681 218.06 286.269 203.226C287.715 202.316 288.598 200.709 288.598 198.996C288.679 169.785 286.269 139.824 281.37 109.06C275.104 69.7815 255.211 -5.34753 200.403 0.301471C149.986 5.49547 162.516 78.5635 174.378 108.926C177.296 116.423 180.348 123.813 183.535 131.122Z" fill="#D80232"/>
<path d="M418.643 102.661C425.711 102.661 431.441 108.391 431.441 115.459C431.441 122.528 425.711 128.258 418.643 128.258C411.575 128.258 405.844 122.528 405.844 115.459C405.844 108.391 411.575 102.661 418.643 102.661ZM239.065 438.04C240.913 391.774 257.138 356.458 301.102 337.368C315.32 331.183 329.564 324.998 343.834 318.839C359.846 311.932 371.706 305.908 379.418 300.767C408.414 281.436 429.058 250.484 439.822 217.846C445.846 199.612 449.622 184.163 451.174 171.553C454.976 140.226 457.868 104.026 484.723 87.0779C494.335 80.9999 509.195 79.3399 520.895 77.8679C536.907 75.8319 552.811 73.4229 568.581 70.6119C569.143 70.5039 569.197 70.2639 568.769 69.9149L566.894 68.3899C566.707 68.2289 566.466 68.1749 566.225 68.2019C548.125 69.9689 531.739 71.8159 517.093 73.7179C502.555 75.6189 491.845 76.4219 484.964 76.0999C475.245 75.6449 464.508 74.3599 452.753 72.2719C392.805 61.5889 360.863 104.482 333.366 147.776C319.309 169.919 309.992 183.547 290.472 199.532C289.749 200.094 289.402 200.844 289.374 201.781C289.161 209.09 288.438 223.04 287.233 243.577C284.876 282.855 276.443 318.117 258.557 350.033C256.923 352.977 252.908 360.26 246.536 371.908C235.263 392.604 234.54 417.558 236.682 441.575C237.378 442.592 238.181 441.414 239.065 438.04Z" fill="#D80232"/>
<path d="M636.473 102.034V176.404C636.473 185.254 634.143 191.914 629.503 196.384C624.853 200.864 618.333 203.104 609.943 203.104C601.662 203.104 595.193 200.864 590.553 196.384C585.903 191.914 583.583 185.254 583.583 176.404V102.034H564.443V176.074C564.443 185.584 566.463 193.644 570.493 200.244C574.523 206.854 579.973 211.774 586.863 215.024C593.743 218.264 601.383 219.894 609.773 219.894C618.173 219.894 625.833 218.264 632.773 215.024C639.713 211.774 645.253 206.854 649.393 200.244C653.533 193.644 655.613 185.584 655.613 176.074V102.034H636.473Z" fill="#D80232"/>
<path d="M760.193 142.664C756.953 136.734 752.443 132.254 746.683 129.234C740.913 126.214 734.403 124.704 727.123 124.704C721.643 124.704 716.464 125.764 711.593 127.884C706.723 130.014 702.723 132.984 699.593 136.784V126.214H680.453V218.714H699.593V167.004C699.593 158.724 701.693 152.374 705.883 147.954C710.084 143.534 715.763 141.324 722.923 141.324C730.093 141.324 735.743 143.534 739.883 147.954C744.023 152.374 746.093 158.724 746.093 167.004V218.714H765.063V164.154C765.063 155.754 763.443 148.594 760.193 142.664Z" fill="#D80232"/>
<path d="M789.403 123.774H808.544V102.034H789.403V123.774ZM789.403 218.714H808.544V131.254H789.403V218.714Z" fill="#D80232"/>
<path d="M833.733 123.774H852.863V102.034H833.733V123.774ZM833.733 218.714H852.863V131.254H833.733V218.714Z" fill="#D80232"/>
<path d="M922.873 141.824V126.214H900.373V103.214H881.073V126.214H870.153V141.824H881.073V193.024C881.073 202.094 883.363 208.644 887.953 212.674C892.544 216.704 899.144 218.714 907.764 218.714H922.873V202.764H911.123C907.203 202.764 904.434 202.014 902.813 200.504C901.184 198.984 900.373 196.494 900.373 193.024V141.824H922.873Z" fill="#D80232"/>
<path d="M954.103 164.154C954.993 156.994 957.793 151.304 962.493 147.114C967.193 142.914 972.843 140.814 979.443 140.814C986.723 140.814 992.823 142.944 997.743 147.194C1002.67 151.454 1005.19 157.104 1005.3 164.154H954.103ZM1025.28 170.194C1025.28 161.244 1023.37 153.324 1019.57 146.444C1015.76 139.554 1010.45 134.214 1003.62 130.404C996.793 126.604 989.023 124.704 980.283 124.704C971.223 124.704 963.193 126.654 956.193 130.574C949.203 134.494 943.773 140.064 939.913 147.284C936.053 154.494 934.123 162.864 934.123 172.374C934.123 181.894 936.103 190.254 940.083 197.474C944.053 204.694 949.533 210.294 956.533 214.264C963.523 218.244 971.443 220.224 980.283 220.224C991.143 220.224 1000.23 217.514 1007.57 212.084C1014.9 206.654 1019.96 199.684 1022.76 191.184H1002.11C997.863 199.804 990.583 204.104 980.283 204.104C973.123 204.104 967.083 201.874 962.153 197.394C957.233 192.914 954.493 186.984 953.933 179.594H1024.61C1025.05 176.804 1025.28 173.664 1025.28 170.194Z" fill="#D80232"/>
</g>
<defs>
<clipPath id="clip0_112_2822">
<rect width="1657" height="442" fill="white"/>
</clipPath>
</defs>
</svg>
