<svg width="570" height="442" viewBox="0 0 570 442" fill="none" xmlns="http://www.w3.org/2000/svg">
<g clip-path="url(#clip0_255_2039)">
<path d="M183.535 131.122C183.561 131.176 183.535 131.203 183.481 131.229L182.946 131.684C182.705 131.872 182.517 131.845 182.33 131.604C163.641 107.319 131.94 87.3195 104.282 77.4935C67.5469 64.4265 21.3069 63.5165 4.30491 104.561C-2.49509 120.921 -1.0501 142.448 7.3039 158.191C24.3859 190.348 59.4069 209.92 94.1069 220.068C130.789 230.805 166.533 231.527 209.104 228.475C236.977 226.467 262.681 218.06 286.269 203.226C287.715 202.316 288.598 200.709 288.598 198.996C288.679 169.785 286.269 139.824 281.37 109.06C275.104 69.7815 255.211 -5.34753 200.403 0.301471C149.986 5.49547 162.516 78.5635 174.378 108.926C177.296 116.423 180.348 123.813 183.535 131.122Z" fill="#050063"/>
<path d="M418.643 102.661C425.711 102.661 431.441 108.391 431.441 115.459C431.441 122.528 425.711 128.258 418.643 128.258C411.575 128.258 405.844 122.528 405.844 115.459C405.844 108.391 411.575 102.661 418.643 102.661ZM239.065 438.04C240.913 391.774 257.138 356.458 301.102 337.368C315.32 331.183 329.564 324.998 343.834 318.839C359.846 311.932 371.706 305.908 379.418 300.767C408.414 281.436 429.058 250.484 439.822 217.846C445.846 199.612 449.622 184.163 451.174 171.553C454.976 140.226 457.868 104.026 484.723 87.0781C494.335 81.0001 509.195 79.3401 520.895 77.8681C536.907 75.8321 552.811 73.4231 568.581 70.6121C569.143 70.5041 569.197 70.2641 568.769 69.9151L566.894 68.3901C566.707 68.2291 566.466 68.1751 566.225 68.2021C548.125 69.9691 531.739 71.8161 517.093 73.7181C502.555 75.6191 491.845 76.4221 484.964 76.1001C475.245 75.6451 464.508 74.3601 452.753 72.2721C392.805 61.5891 360.863 104.482 333.366 147.776C319.309 169.919 309.992 183.547 290.472 199.532C289.749 200.094 289.402 200.844 289.374 201.781C289.161 209.09 288.438 223.04 287.233 243.577C284.876 282.855 276.443 318.117 258.557 350.033C256.923 352.977 252.908 360.26 246.536 371.908C235.263 392.604 234.54 417.558 236.682 441.575C237.378 442.592 238.181 441.414 239.065 438.04Z" fill="#050063"/>
</g>
<defs>
<clipPath id="clip0_255_2039">
<rect width="569.052" height="441.928" fill="white"/>
</clipPath>
</defs>
</svg>
