<svg width="570" height="490" viewBox="0 0 570 490" fill="none" xmlns="http://www.w3.org/2000/svg">
<g clip-path="url(#clip0_264_2039)">
<path d="M570 0H0V489.928H570V0Z" fill="white"/>
<mask id="mask0_264_2039" style="mask-type:luminance" maskUnits="userSpaceOnUse" x="24" y="24" width="522" height="442">
<path d="M546 24H24V465.928H546V24Z" fill="white"/>
</mask>
<g mask="url(#mask0_264_2039)">
<path d="M192.359 155.122C192.383 155.176 192.359 155.203 192.31 155.229L191.819 155.684C191.598 155.872 191.426 155.845 191.254 155.604C174.11 131.319 145.031 111.319 119.659 101.493C85.9618 88.4265 43.5451 87.5165 27.949 128.561C21.7112 144.921 23.0367 166.448 30.7 182.191C46.3696 214.348 78.4949 233.92 110.326 244.068C143.975 254.805 176.763 255.527 215.814 252.475C241.383 250.467 264.961 242.06 286.599 227.226C287.925 226.316 288.735 224.709 288.735 222.996C288.81 193.785 286.599 163.824 282.105 133.06C276.357 93.7815 258.109 18.6525 207.833 24.3015C161.584 29.4955 173.078 102.564 183.96 132.926C186.636 140.423 189.436 147.813 192.359 155.122Z" fill="#D80232"/>
<path d="M408.028 126.661C414.512 126.661 419.768 132.391 419.768 139.459C419.768 146.528 414.512 152.258 408.028 152.258C401.545 152.258 396.287 146.528 396.287 139.459C396.287 132.391 401.545 126.661 408.028 126.661ZM243.299 462.04C244.994 415.774 259.877 380.458 300.206 361.368C313.248 355.183 326.315 348.998 339.405 342.839C354.093 335.932 364.972 329.908 372.046 324.767C398.645 305.436 417.582 274.484 427.456 241.846C432.982 223.612 436.446 208.163 437.869 195.553C441.357 164.226 444.01 128.026 468.644 111.078C477.462 105 491.093 103.34 501.825 101.868C516.514 99.8322 531.103 97.4232 545.569 94.6122C546.084 94.5042 546.134 94.2642 545.741 93.9152L544.021 92.3902C543.85 92.2292 543.628 92.1752 543.407 92.2022C526.804 93.9692 511.773 95.8162 498.338 97.7182C485.002 99.6192 475.177 100.422 468.865 100.1C459.95 99.6452 450.101 98.3602 439.318 96.2722C384.327 85.5892 355.026 128.482 329.802 171.776C316.908 193.919 308.361 207.547 290.455 223.532C289.792 224.094 289.473 224.844 289.448 225.781C289.252 233.09 288.589 247.04 287.484 267.577C285.322 306.855 277.586 342.117 261.179 374.033C259.68 376.977 255.997 384.26 250.152 395.908C239.811 416.604 239.148 441.558 241.113 465.575C241.751 466.592 242.488 465.414 243.299 462.04Z" fill="#D80232"/>
</g>
</g>
<defs>
<clipPath id="clip0_264_2039">
<rect width="570" height="490" fill="white"/>
</clipPath>
</defs>
</svg>
